{
 "cells": [
  {
   "cell_type": "code",
   "execution_count": 1,
   "metadata": {},
   "outputs": [],
   "source": [
    "# install mido with: pip install mido\n",
    "# to use ports: pip install python-rtmidi\n",
    "import mido"
   ]
  },
  {
   "cell_type": "code",
   "execution_count": 61,
   "metadata": {},
   "outputs": [],
   "source": [
    "file = mido.MidiFile('datasets\\Bach\\cs1-1pre.mid')\n",
    "file = mido.MidiFile('datasets\\Bach\\cs1-2all.mid')\n",
    "\n"
   ]
  },
  {
   "cell_type": "code",
   "execution_count": 62,
   "metadata": {},
   "outputs": [
    {
     "data": {
      "text/plain": [
       "<midi file 'datasets\\\\Bach\\\\cs1-2all.mid' type 1, 17 tracks, 2036 messages>"
      ]
     },
     "execution_count": 62,
     "metadata": {},
     "output_type": "execute_result"
    }
   ],
   "source": [
    "file"
   ]
  },
  {
   "cell_type": "code",
   "execution_count": 63,
   "metadata": {},
   "outputs": [
    {
     "data": {
      "text/plain": [
       "['__class__',\n",
       " '__delattr__',\n",
       " '__dict__',\n",
       " '__dir__',\n",
       " '__doc__',\n",
       " '__enter__',\n",
       " '__eq__',\n",
       " '__exit__',\n",
       " '__format__',\n",
       " '__ge__',\n",
       " '__getattribute__',\n",
       " '__gt__',\n",
       " '__hash__',\n",
       " '__init__',\n",
       " '__init_subclass__',\n",
       " '__iter__',\n",
       " '__le__',\n",
       " '__lt__',\n",
       " '__module__',\n",
       " '__ne__',\n",
       " '__new__',\n",
       " '__reduce__',\n",
       " '__reduce_ex__',\n",
       " '__repr__',\n",
       " '__setattr__',\n",
       " '__sizeof__',\n",
       " '__str__',\n",
       " '__subclasshook__',\n",
       " '__weakref__',\n",
       " '_load',\n",
       " '_save',\n",
       " 'add_track',\n",
       " 'charset',\n",
       " 'clip',\n",
       " 'debug',\n",
       " 'filename',\n",
       " 'length',\n",
       " 'play',\n",
       " 'print_tracks',\n",
       " 'save',\n",
       " 'ticks_per_beat',\n",
       " 'tracks',\n",
       " 'type']"
      ]
     },
     "execution_count": 63,
     "metadata": {},
     "output_type": "execute_result"
    }
   ],
   "source": [
    "dir(file)"
   ]
  },
  {
   "cell_type": "code",
   "execution_count": 64,
   "metadata": {},
   "outputs": [
    {
     "data": {
      "text/plain": [
       "[<meta message midi_port port=0 time=0>,\n",
       " <meta message track_name name='Solo Cello' time=0>,\n",
       " <message program_change channel=0 program=42 time=0>,\n",
       " <message control_change channel=0 control=7 value=100 time=0>,\n",
       " <message control_change channel=0 control=10 value=64 time=0>,\n",
       " <message note_on channel=0 note=59 velocity=100 time=1800>,\n",
       " <message note_on channel=0 note=59 velocity=0 time=120>,\n",
       " <message note_on channel=0 note=59 velocity=100 time=0>,\n",
       " <message note_on channel=0 note=59 velocity=0 time=600>,\n",
       " <message note_on channel=0 note=57 velocity=100 time=0>,\n",
       " <message note_on channel=0 note=57 velocity=0 time=120>,\n",
       " <message note_on channel=0 note=55 velocity=100 time=0>,\n",
       " <message note_on channel=0 note=55 velocity=0 time=120>,\n",
       " <message note_on channel=0 note=54 velocity=100 time=0>,\n",
       " <message note_on channel=0 note=54 velocity=0 time=120>,\n",
       " <message note_on channel=0 note=55 velocity=100 time=0>,\n",
       " <message note_on channel=0 note=55 velocity=0 time=120>,\n",
       " <message note_on channel=0 note=50 velocity=100 time=0>,\n",
       " <message note_on channel=0 note=50 velocity=0 time=120>,\n",
       " <message note_on channel=0 note=52 velocity=100 time=0>,\n",
       " <message note_on channel=0 note=52 velocity=0 time=120>,\n",
       " <message note_on channel=0 note=54 velocity=100 time=0>,\n",
       " <message note_on channel=0 note=54 velocity=0 time=120>,\n",
       " <message note_on channel=0 note=55 velocity=100 time=0>,\n",
       " <message note_on channel=0 note=55 velocity=0 time=120>,\n",
       " <message note_on channel=0 note=57 velocity=100 time=0>,\n",
       " <message note_on channel=0 note=57 velocity=0 time=120>,\n",
       " <message note_on channel=0 note=59 velocity=100 time=0>,\n",
       " <message note_on channel=0 note=59 velocity=0 time=120>,\n",
       " <message note_on channel=0 note=60 velocity=100 time=0>,\n",
       " <message note_on channel=0 note=60 velocity=0 time=120>,\n",
       " <message note_on channel=0 note=62 velocity=100 time=0>,\n",
       " <message note_on channel=0 note=62 velocity=0 time=120>,\n",
       " <message note_on channel=0 note=59 velocity=100 time=0>,\n",
       " <message note_on channel=0 note=59 velocity=0 time=120>,\n",
       " <message note_on channel=0 note=55 velocity=100 time=0>,\n",
       " <message note_on channel=0 note=55 velocity=0 time=120>,\n",
       " <message note_on channel=0 note=54 velocity=100 time=0>,\n",
       " <message note_on channel=0 note=54 velocity=0 time=120>,\n",
       " <message note_on channel=0 note=55 velocity=100 time=0>,\n",
       " <message note_on channel=0 note=55 velocity=0 time=120>,\n",
       " <message note_on channel=0 note=52 velocity=100 time=0>,\n",
       " <message note_on channel=0 note=52 velocity=0 time=120>,\n",
       " <message note_on channel=0 note=50 velocity=100 time=0>,\n",
       " <message note_on channel=0 note=50 velocity=0 time=120>,\n",
       " <message note_on channel=0 note=48 velocity=100 time=0>,\n",
       " <message note_on channel=0 note=48 velocity=0 time=120>,\n",
       " <message note_on channel=0 note=47 velocity=100 time=0>,\n",
       " <message note_on channel=0 note=47 velocity=0 time=120>,\n",
       " <message note_on channel=0 note=48 velocity=100 time=0>,\n",
       " <message note_on channel=0 note=48 velocity=0 time=120>,\n",
       " <message note_on channel=0 note=50 velocity=100 time=0>,\n",
       " <message note_on channel=0 note=50 velocity=0 time=120>,\n",
       " <message note_on channel=0 note=52 velocity=100 time=0>,\n",
       " <message note_on channel=0 note=52 velocity=0 time=120>,\n",
       " <message note_on channel=0 note=54 velocity=100 time=0>,\n",
       " <message note_on channel=0 note=54 velocity=0 time=120>,\n",
       " <message note_on channel=0 note=55 velocity=100 time=0>,\n",
       " <message note_on channel=0 note=55 velocity=0 time=120>,\n",
       " <message note_on channel=0 note=57 velocity=100 time=0>,\n",
       " <message note_on channel=0 note=57 velocity=0 time=120>,\n",
       " <message note_on channel=0 note=59 velocity=100 time=0>,\n",
       " <message note_on channel=0 note=59 velocity=0 time=120>,\n",
       " <message note_on channel=0 note=60 velocity=100 time=0>,\n",
       " <message note_on channel=0 note=60 velocity=0 time=120>,\n",
       " <message note_on channel=0 note=57 velocity=100 time=0>,\n",
       " <message note_on channel=0 note=57 velocity=0 time=120>,\n",
       " <message note_on channel=0 note=55 velocity=100 time=0>,\n",
       " <message note_on channel=0 note=55 velocity=0 time=120>,\n",
       " <message note_on channel=0 note=54 velocity=100 time=0>,\n",
       " <message note_on channel=0 note=54 velocity=0 time=120>,\n",
       " <message note_on channel=0 note=55 velocity=100 time=0>,\n",
       " <message note_on channel=0 note=55 velocity=0 time=120>,\n",
       " <message note_on channel=0 note=52 velocity=100 time=0>,\n",
       " <message note_on channel=0 note=52 velocity=0 time=120>,\n",
       " <message note_on channel=0 note=54 velocity=100 time=0>,\n",
       " <message note_on channel=0 note=54 velocity=0 time=120>,\n",
       " <message note_on channel=0 note=55 velocity=100 time=0>,\n",
       " <message note_on channel=0 note=55 velocity=0 time=120>,\n",
       " <message note_on channel=0 note=45 velocity=100 time=0>,\n",
       " <message note_on channel=0 note=45 velocity=0 time=120>,\n",
       " <message note_on channel=0 note=50 velocity=100 time=0>,\n",
       " <message note_on channel=0 note=50 velocity=0 time=120>,\n",
       " <message note_on channel=0 note=54 velocity=100 time=0>,\n",
       " <message note_on channel=0 note=54 velocity=0 time=120>,\n",
       " <message note_on channel=0 note=55 velocity=100 time=0>,\n",
       " <message note_on channel=0 note=55 velocity=0 time=120>,\n",
       " <message note_on channel=0 note=57 velocity=100 time=0>,\n",
       " <message note_on channel=0 note=57 velocity=0 time=120>,\n",
       " <message note_on channel=0 note=59 velocity=100 time=0>,\n",
       " <message note_on channel=0 note=59 velocity=0 time=120>,\n",
       " <message note_on channel=0 note=60 velocity=100 time=0>,\n",
       " <message note_on channel=0 note=60 velocity=0 time=120>,\n",
       " <message note_on channel=0 note=57 velocity=100 time=0>,\n",
       " <message note_on channel=0 note=57 velocity=0 time=120>,\n",
       " <message note_on channel=0 note=59 velocity=100 time=0>,\n",
       " <message note_on channel=0 note=59 velocity=0 time=120>,\n",
       " <message note_on channel=0 note=55 velocity=100 time=0>,\n",
       " <message note_on channel=0 note=55 velocity=0 time=120>,\n",
       " <message note_on channel=0 note=55 velocity=100 time=0>,\n",
       " <message note_on channel=0 note=55 velocity=0 time=120>,\n",
       " <message note_on channel=0 note=50 velocity=100 time=0>,\n",
       " <message note_on channel=0 note=50 velocity=0 time=120>,\n",
       " <message note_on channel=0 note=50 velocity=100 time=0>,\n",
       " <message note_on channel=0 note=50 velocity=0 time=120>,\n",
       " <message note_on channel=0 note=47 velocity=100 time=0>,\n",
       " <message note_on channel=0 note=47 velocity=0 time=120>,\n",
       " <message note_on channel=0 note=47 velocity=100 time=0>,\n",
       " <message note_on channel=0 note=47 velocity=0 time=120>,\n",
       " <message note_on channel=0 note=43 velocity=100 time=0>,\n",
       " <message note_on channel=0 note=43 velocity=0 time=120>,\n",
       " <message note_on channel=0 note=43 velocity=100 time=0>,\n",
       " <message note_on channel=0 note=43 velocity=0 time=360>,\n",
       " <message note_on channel=0 note=59 velocity=100 time=0>,\n",
       " <message note_on channel=0 note=59 velocity=0 time=120>,\n",
       " <message note_on channel=0 note=60 velocity=100 time=0>,\n",
       " <message note_on channel=0 note=60 velocity=0 time=120>,\n",
       " <message note_on channel=0 note=59 velocity=100 time=0>,\n",
       " <message note_on channel=0 note=59 velocity=0 time=120>,\n",
       " <message note_on channel=0 note=57 velocity=100 time=0>,\n",
       " <message note_on channel=0 note=57 velocity=0 time=120>,\n",
       " <message note_on channel=0 note=55 velocity=100 time=0>,\n",
       " <message note_on channel=0 note=55 velocity=0 time=120>,\n",
       " <message note_on channel=0 note=57 velocity=100 time=0>,\n",
       " <message note_on channel=0 note=57 velocity=0 time=120>,\n",
       " <message note_on channel=0 note=59 velocity=100 time=0>,\n",
       " <message note_on channel=0 note=59 velocity=0 time=120>,\n",
       " <message note_on channel=0 note=60 velocity=100 time=0>,\n",
       " <message note_on channel=0 note=60 velocity=0 time=120>,\n",
       " <message note_on channel=0 note=57 velocity=100 time=0>,\n",
       " <message note_on channel=0 note=57 velocity=0 time=120>,\n",
       " <message note_on channel=0 note=55 velocity=100 time=0>,\n",
       " <message note_on channel=0 note=55 velocity=0 time=120>,\n",
       " <message note_on channel=0 note=54 velocity=100 time=0>,\n",
       " <message note_on channel=0 note=54 velocity=0 time=120>,\n",
       " <message note_on channel=0 note=55 velocity=100 time=0>,\n",
       " <message note_on channel=0 note=55 velocity=0 time=120>,\n",
       " <message note_on channel=0 note=57 velocity=100 time=0>,\n",
       " <message note_on channel=0 note=57 velocity=0 time=120>,\n",
       " <message pitchwheel channel=0 pitch=4096 time=0>,\n",
       " <message note_on channel=0 note=51 velocity=100 time=0>,\n",
       " <message pitchwheel channel=0 pitch=0 time=40>,\n",
       " <message pitchwheel channel=0 pitch=4096 time=40>,\n",
       " <message pitchwheel channel=0 pitch=0 time=40>,\n",
       " <message note_on channel=0 note=51 velocity=0 time=240>,\n",
       " <message note_on channel=0 note=60 velocity=100 time=0>,\n",
       " <message note_on channel=0 note=60 velocity=0 time=120>,\n",
       " <message note_on channel=0 note=59 velocity=100 time=0>,\n",
       " <message note_on channel=0 note=59 velocity=0 time=120>,\n",
       " <message note_on channel=0 note=57 velocity=100 time=0>,\n",
       " <message note_on channel=0 note=57 velocity=0 time=120>,\n",
       " <message note_on channel=0 note=55 velocity=100 time=0>,\n",
       " <message note_on channel=0 note=55 velocity=0 time=120>,\n",
       " <message note_on channel=0 note=54 velocity=100 time=0>,\n",
       " <message note_on channel=0 note=54 velocity=0 time=120>,\n",
       " <message note_on channel=0 note=55 velocity=100 time=0>,\n",
       " <message note_on channel=0 note=55 velocity=0 time=120>,\n",
       " <message note_on channel=0 note=52 velocity=100 time=0>,\n",
       " <message note_on channel=0 note=52 velocity=0 time=120>,\n",
       " <message note_on channel=0 note=52 velocity=100 time=0>,\n",
       " <message note_on channel=0 note=52 velocity=0 time=120>,\n",
       " <message note_on channel=0 note=47 velocity=100 time=0>,\n",
       " <message note_on channel=0 note=47 velocity=0 time=120>,\n",
       " <message note_on channel=0 note=47 velocity=100 time=0>,\n",
       " <message note_on channel=0 note=47 velocity=0 time=120>,\n",
       " <message note_on channel=0 note=43 velocity=100 time=0>,\n",
       " <message note_on channel=0 note=43 velocity=0 time=120>,\n",
       " <message note_on channel=0 note=43 velocity=100 time=0>,\n",
       " <message note_on channel=0 note=43 velocity=0 time=120>,\n",
       " <message note_on channel=0 note=40 velocity=100 time=0>,\n",
       " <message note_on channel=0 note=40 velocity=0 time=120>,\n",
       " <message note_on channel=0 note=40 velocity=100 time=0>,\n",
       " <message note_on channel=0 note=40 velocity=0 time=360>,\n",
       " <message note_on channel=0 note=47 velocity=100 time=0>,\n",
       " <message note_on channel=0 note=47 velocity=0 time=120>,\n",
       " <message note_on channel=0 note=52 velocity=100 time=0>,\n",
       " <message note_on channel=0 note=52 velocity=0 time=120>,\n",
       " <message note_on channel=0 note=55 velocity=100 time=0>,\n",
       " <message note_on channel=0 note=55 velocity=0 time=120>,\n",
       " <message note_on channel=0 note=54 velocity=100 time=0>,\n",
       " <message note_on channel=0 note=54 velocity=0 time=120>,\n",
       " <message note_on channel=0 note=57 velocity=100 time=0>,\n",
       " <message note_on channel=0 note=57 velocity=0 time=120>,\n",
       " <message note_on channel=0 note=55 velocity=100 time=0>,\n",
       " <message note_on channel=0 note=55 velocity=0 time=120>,\n",
       " <message note_on channel=0 note=54 velocity=100 time=0>,\n",
       " <message note_on channel=0 note=54 velocity=0 time=120>,\n",
       " <message note_on channel=0 note=52 velocity=100 time=0>,\n",
       " <message note_on channel=0 note=52 velocity=0 time=120>,\n",
       " <message note_on channel=0 note=54 velocity=100 time=0>,\n",
       " <message note_on channel=0 note=54 velocity=0 time=120>,\n",
       " <message note_on channel=0 note=55 velocity=100 time=0>,\n",
       " <message note_on channel=0 note=55 velocity=0 time=120>,\n",
       " <message note_on channel=0 note=61 velocity=100 time=0>,\n",
       " <message note_on channel=0 note=61 velocity=0 time=120>,\n",
       " <message note_on channel=0 note=55 velocity=100 time=0>,\n",
       " <message note_on channel=0 note=55 velocity=0 time=120>,\n",
       " <message note_on channel=0 note=54 velocity=100 time=0>,\n",
       " <message note_on channel=0 note=54 velocity=0 time=120>,\n",
       " <message note_on channel=0 note=55 velocity=100 time=0>,\n",
       " <message note_on channel=0 note=55 velocity=0 time=120>,\n",
       " <message note_on channel=0 note=61 velocity=100 time=0>,\n",
       " <message note_on channel=0 note=61 velocity=0 time=120>,\n",
       " <message note_on channel=0 note=52 velocity=100 time=0>,\n",
       " <message note_on channel=0 note=52 velocity=0 time=120>,\n",
       " <message note_on channel=0 note=54 velocity=100 time=0>,\n",
       " <message note_on channel=0 note=54 velocity=0 time=120>,\n",
       " <message note_on channel=0 note=55 velocity=100 time=0>,\n",
       " <message note_on channel=0 note=55 velocity=0 time=120>,\n",
       " <message note_on channel=0 note=52 velocity=100 time=0>,\n",
       " <message note_on channel=0 note=52 velocity=0 time=120>,\n",
       " <message note_on channel=0 note=45 velocity=100 time=0>,\n",
       " <message note_on channel=0 note=45 velocity=0 time=120>,\n",
       " <message note_on channel=0 note=55 velocity=100 time=0>,\n",
       " <message note_on channel=0 note=55 velocity=0 time=120>,\n",
       " <message pitchwheel channel=0 pitch=4096 time=0>,\n",
       " <message note_on channel=0 note=54 velocity=100 time=0>,\n",
       " <message pitchwheel channel=0 pitch=0 time=40>,\n",
       " <message pitchwheel channel=0 pitch=4096 time=40>,\n",
       " <message pitchwheel channel=0 pitch=0 time=40>,\n",
       " <message note_on channel=0 note=54 velocity=0 time=120>,\n",
       " <message note_on channel=0 note=50 velocity=100 time=0>,\n",
       " <message note_on channel=0 note=50 velocity=0 time=120>,\n",
       " <message note_on channel=0 note=52 velocity=100 time=0>,\n",
       " <message note_on channel=0 note=52 velocity=0 time=120>,\n",
       " <message note_on channel=0 note=54 velocity=100 time=0>,\n",
       " <message note_on channel=0 note=54 velocity=0 time=120>,\n",
       " <message note_on channel=0 note=50 velocity=100 time=0>,\n",
       " <message note_on channel=0 note=50 velocity=0 time=120>,\n",
       " <message note_on channel=0 note=55 velocity=100 time=0>,\n",
       " <message note_on channel=0 note=55 velocity=0 time=120>,\n",
       " <message note_on channel=0 note=52 velocity=100 time=0>,\n",
       " <message note_on channel=0 note=52 velocity=0 time=120>,\n",
       " <message note_on channel=0 note=54 velocity=100 time=0>,\n",
       " <message note_on channel=0 note=54 velocity=0 time=120>,\n",
       " <message note_on channel=0 note=50 velocity=100 time=0>,\n",
       " <message note_on channel=0 note=50 velocity=0 time=120>,\n",
       " <message note_on channel=0 note=54 velocity=100 time=0>,\n",
       " <message note_on channel=0 note=54 velocity=0 time=120>,\n",
       " <message note_on channel=0 note=55 velocity=100 time=0>,\n",
       " <message note_on channel=0 note=55 velocity=0 time=120>,\n",
       " <message note_on channel=0 note=57 velocity=100 time=0>,\n",
       " <message note_on channel=0 note=57 velocity=0 time=120>,\n",
       " <message note_on channel=0 note=59 velocity=100 time=0>,\n",
       " <message note_on channel=0 note=59 velocity=0 time=120>,\n",
       " <message note_on channel=0 note=60 velocity=100 time=0>,\n",
       " <message note_on channel=0 note=60 velocity=0 time=120>,\n",
       " <message note_on channel=0 note=57 velocity=100 time=0>,\n",
       " <message note_on channel=0 note=57 velocity=0 time=120>,\n",
       " <message note_on channel=0 note=59 velocity=100 time=0>,\n",
       " <message note_on channel=0 note=59 velocity=0 time=120>,\n",
       " <message note_on channel=0 note=50 velocity=100 time=0>,\n",
       " <message note_on channel=0 note=50 velocity=0 time=120>,\n",
       " <message note_on channel=0 note=43 velocity=100 time=0>,\n",
       " <message note_on channel=0 note=43 velocity=0 time=120>,\n",
       " <message note_on channel=0 note=50 velocity=100 time=0>,\n",
       " <message note_on channel=0 note=50 velocity=0 time=120>,\n",
       " <message note_on channel=0 note=59 velocity=100 time=0>,\n",
       " <message note_on channel=0 note=59 velocity=0 time=120>,\n",
       " <message note_on channel=0 note=55 velocity=100 time=0>,\n",
       " <message note_on channel=0 note=55 velocity=0 time=120>,\n",
       " <message note_on channel=0 note=57 velocity=100 time=0>,\n",
       " <message note_on channel=0 note=57 velocity=0 time=120>,\n",
       " <message note_on channel=0 note=54 velocity=100 time=0>,\n",
       " <message note_on channel=0 note=54 velocity=0 time=120>,\n",
       " <message note_on channel=0 note=55 velocity=100 time=0>,\n",
       " <message note_on channel=0 note=55 velocity=0 time=120>,\n",
       " <message note_on channel=0 note=52 velocity=100 time=0>,\n",
       " <message note_on channel=0 note=52 velocity=0 time=120>,\n",
       " <message note_on channel=0 note=55 velocity=100 time=0>,\n",
       " <message note_on channel=0 note=55 velocity=0 time=120>,\n",
       " <message note_on channel=0 note=57 velocity=100 time=0>,\n",
       " <message note_on channel=0 note=57 velocity=0 time=120>,\n",
       " <message note_on channel=0 note=59 velocity=100 time=0>,\n",
       " <message note_on channel=0 note=59 velocity=0 time=120>,\n",
       " <message note_on channel=0 note=61 velocity=100 time=0>,\n",
       " <message note_on channel=0 note=61 velocity=0 time=120>,\n",
       " <message note_on channel=0 note=62 velocity=100 time=0>,\n",
       " <message note_on channel=0 note=62 velocity=0 time=120>,\n",
       " <message note_on channel=0 note=59 velocity=100 time=0>,\n",
       " <message note_on channel=0 note=59 velocity=0 time=120>,\n",
       " <message note_on channel=0 note=61 velocity=100 time=0>,\n",
       " <message note_on channel=0 note=61 velocity=0 time=120>,\n",
       " <message note_on channel=0 note=52 velocity=100 time=0>,\n",
       " <message note_on channel=0 note=52 velocity=0 time=120>,\n",
       " <message note_on channel=0 note=43 velocity=100 time=0>,\n",
       " <message note_on channel=0 note=43 velocity=0 time=120>,\n",
       " <message note_on channel=0 note=52 velocity=100 time=0>,\n",
       " <message note_on channel=0 note=52 velocity=0 time=120>,\n",
       " <message note_on channel=0 note=61 velocity=100 time=0>,\n",
       " <message note_on channel=0 note=61 velocity=0 time=120>,\n",
       " <message note_on channel=0 note=57 velocity=100 time=0>,\n",
       " <message note_on channel=0 note=57 velocity=0 time=120>,\n",
       " <message note_on channel=0 note=59 velocity=100 time=0>,\n",
       " <message note_on channel=0 note=59 velocity=0 time=120>,\n",
       " <message note_on channel=0 note=62 velocity=100 time=0>,\n",
       " <message note_on channel=0 note=62 velocity=0 time=120>,\n",
       " <message note_on channel=0 note=61 velocity=100 time=0>,\n",
       " <message note_on channel=0 note=61 velocity=0 time=120>,\n",
       " <message note_on channel=0 note=57 velocity=100 time=0>,\n",
       " <message note_on channel=0 note=57 velocity=0 time=120>,\n",
       " <message note_on channel=0 note=62 velocity=100 time=0>,\n",
       " <message note_on channel=0 note=62 velocity=0 time=120>,\n",
       " <message note_on channel=0 note=59 velocity=100 time=0>,\n",
       " <message note_on channel=0 note=59 velocity=0 time=120>,\n",
       " <message note_on channel=0 note=61 velocity=100 time=0>,\n",
       " <message note_on channel=0 note=61 velocity=0 time=120>,\n",
       " <message note_on channel=0 note=57 velocity=100 time=0>,\n",
       " <message note_on channel=0 note=57 velocity=0 time=120>,\n",
       " <message note_on channel=0 note=64 velocity=100 time=0>,\n",
       " <message note_on channel=0 note=64 velocity=0 time=120>,\n",
       " <message note_on channel=0 note=55 velocity=100 time=0>,\n",
       " <message note_on channel=0 note=55 velocity=0 time=120>,\n",
       " <message pitchwheel channel=0 pitch=4096 time=0>,\n",
       " <message note_on channel=0 note=54 velocity=100 time=0>,\n",
       " <message pitchwheel channel=0 pitch=0 time=40>,\n",
       " <message pitchwheel channel=0 pitch=4096 time=40>,\n",
       " <message pitchwheel channel=0 pitch=0 time=40>,\n",
       " <message note_on channel=0 note=54 velocity=0 time=240>,\n",
       " <message note_on channel=0 note=62 velocity=100 time=0>,\n",
       " <message note_on channel=0 note=62 velocity=0 time=120>,\n",
       " <message note_on channel=0 note=57 velocity=100 time=0>,\n",
       " <message note_on channel=0 note=57 velocity=0 time=120>,\n",
       " <message note_on channel=0 note=55 velocity=100 time=0>,\n",
       " <message note_on channel=0 note=55 velocity=0 time=120>,\n",
       " <message note_on channel=0 note=54 velocity=100 time=0>,\n",
       " <message note_on channel=0 note=54 velocity=0 time=120>,\n",
       " <message note_on channel=0 note=52 velocity=100 time=0>,\n",
       " <message note_on channel=0 note=52 velocity=0 time=120>,\n",
       " <message note_on channel=0 note=50 velocity=100 time=0>,\n",
       " <message note_on channel=0 note=50 velocity=0 time=120>,\n",
       " <message note_on channel=0 note=57 velocity=100 time=0>,\n",
       " <message note_on channel=0 note=57 velocity=0 time=120>,\n",
       " <message note_on channel=0 note=55 velocity=100 time=0>,\n",
       " <message note_on channel=0 note=55 velocity=0 time=120>,\n",
       " <message note_on channel=0 note=52 velocity=100 time=0>,\n",
       " <message note_on channel=0 note=52 velocity=0 time=120>,\n",
       " <message note_on channel=0 note=54 velocity=100 time=0>,\n",
       " <message note_on channel=0 note=54 velocity=0 time=120>,\n",
       " <message note_on channel=0 note=50 velocity=100 time=0>,\n",
       " <message note_on channel=0 note=50 velocity=0 time=120>,\n",
       " <message note_on channel=0 note=57 velocity=100 time=0>,\n",
       " <message note_on channel=0 note=57 velocity=0 time=120>,\n",
       " <message note_on channel=0 note=48 velocity=100 time=0>,\n",
       " <message note_on channel=0 note=48 velocity=0 time=120>,\n",
       " <message pitchwheel channel=0 pitch=4096 time=0>,\n",
       " <message note_on channel=0 note=47 velocity=100 time=0>,\n",
       " <message pitchwheel channel=0 pitch=0 time=44>,\n",
       " <message pitchwheel channel=0 pitch=4096 time=36>,\n",
       " <message pitchwheel channel=0 pitch=0 time=40>,\n",
       " <message note_on channel=0 note=47 velocity=0 time=240>,\n",
       " <message note_on channel=0 note=55 velocity=100 time=0>,\n",
       " <message note_on channel=0 note=55 velocity=0 time=120>,\n",
       " <message note_on channel=0 note=50 velocity=100 time=0>,\n",
       " <message note_on channel=0 note=50 velocity=0 time=120>,\n",
       " <message note_on channel=0 note=48 velocity=100 time=0>,\n",
       " <message note_on channel=0 note=48 velocity=0 time=120>,\n",
       " <message note_on channel=0 note=47 velocity=100 time=0>,\n",
       " <message note_on channel=0 note=47 velocity=0 time=120>,\n",
       " <message note_on channel=0 note=45 velocity=100 time=0>,\n",
       " <message note_on channel=0 note=45 velocity=0 time=120>,\n",
       " <message note_on channel=0 note=43 velocity=100 time=0>,\n",
       " <message note_on channel=0 note=43 velocity=0 time=120>,\n",
       " <message note_on channel=0 note=50 velocity=100 time=0>,\n",
       " <message note_on channel=0 note=50 velocity=0 time=120>,\n",
       " <message note_on channel=0 note=48 velocity=100 time=0>,\n",
       " <message note_on channel=0 note=48 velocity=0 time=120>,\n",
       " <message note_on channel=0 note=45 velocity=100 time=0>,\n",
       " <message note_on channel=0 note=45 velocity=0 time=120>,\n",
       " <message note_on channel=0 note=47 velocity=100 time=0>,\n",
       " <message note_on channel=0 note=47 velocity=0 time=120>,\n",
       " <message note_on channel=0 note=43 velocity=100 time=0>,\n",
       " <message note_on channel=0 note=43 velocity=0 time=120>,\n",
       " <message note_on channel=0 note=50 velocity=100 time=0>,\n",
       " <message note_on channel=0 note=50 velocity=0 time=120>,\n",
       " <message note_on channel=0 note=42 velocity=100 time=0>,\n",
       " <message note_on channel=0 note=42 velocity=0 time=120>,\n",
       " <message note_on channel=0 note=40 velocity=100 time=0>,\n",
       " <message note_on channel=0 note=40 velocity=0 time=120>,\n",
       " <message note_on channel=0 note=43 velocity=100 time=0>,\n",
       " <message note_on channel=0 note=43 velocity=0 time=120>,\n",
       " <message note_on channel=0 note=45 velocity=100 time=0>,\n",
       " <message note_on channel=0 note=45 velocity=0 time=120>,\n",
       " <message note_on channel=0 note=47 velocity=100 time=0>,\n",
       " <message note_on channel=0 note=47 velocity=0 time=120>,\n",
       " <message note_on channel=0 note=49 velocity=100 time=0>,\n",
       " <message note_on channel=0 note=49 velocity=0 time=120>,\n",
       " <message note_on channel=0 note=50 velocity=100 time=0>,\n",
       " <message note_on channel=0 note=50 velocity=0 time=120>,\n",
       " <message note_on channel=0 note=52 velocity=100 time=0>,\n",
       " <message note_on channel=0 note=52 velocity=0 time=120>,\n",
       " <message note_on channel=0 note=54 velocity=100 time=0>,\n",
       " <message note_on channel=0 note=54 velocity=0 time=120>,\n",
       " <message note_on channel=0 note=55 velocity=100 time=0>,\n",
       " <message note_on channel=0 note=55 velocity=0 time=120>,\n",
       " <message note_on channel=0 note=57 velocity=100 time=0>,\n",
       " <message note_on channel=0 note=57 velocity=0 time=120>,\n",
       " <message note_on channel=0 note=61 velocity=100 time=0>,\n",
       " <message note_on channel=0 note=61 velocity=0 time=120>,\n",
       " <message note_on channel=0 note=62 velocity=100 time=0>,\n",
       " <message note_on channel=0 note=62 velocity=0 time=120>,\n",
       " <message note_on channel=0 note=64 velocity=100 time=0>,\n",
       " <message note_on channel=0 note=64 velocity=0 time=120>,\n",
       " <message note_on channel=0 note=57 velocity=100 time=0>,\n",
       " <message note_on channel=0 note=57 velocity=0 time=120>,\n",
       " <message note_on channel=0 note=67 velocity=100 time=0>,\n",
       " <message note_on channel=0 note=67 velocity=0 time=240>,\n",
       " <message note_on channel=0 note=50 velocity=100 time=0>,\n",
       " <message note_on channel=0 note=50 velocity=0 time=120>,\n",
       " <message note_on channel=0 note=67 velocity=100 time=0>,\n",
       " <message note_on channel=0 note=67 velocity=0 time=120>,\n",
       " <message note_on channel=0 note=66 velocity=100 time=0>,\n",
       " <message note_on channel=0 note=66 velocity=0 time=120>,\n",
       " <message note_on channel=0 note=64 velocity=100 time=0>,\n",
       " <message note_on channel=0 note=64 velocity=0 time=120>,\n",
       " <message note_on channel=0 note=66 velocity=100 time=0>,\n",
       " <message note_on channel=0 note=66 velocity=0 time=120>,\n",
       " <message note_on channel=0 note=62 velocity=100 time=0>,\n",
       " <message note_on channel=0 note=62 velocity=0 time=120>,\n",
       " <message note_on channel=0 note=57 velocity=100 time=0>,\n",
       " <message note_on channel=0 note=57 velocity=0 time=120>,\n",
       " <message note_on channel=0 note=62 velocity=100 time=0>,\n",
       " <message note_on channel=0 note=62 velocity=0 time=120>,\n",
       " <message note_on channel=0 note=50 velocity=100 time=0>,\n",
       " <message note_on channel=0 note=50 velocity=0 time=120>,\n",
       " <message note_on channel=0 note=54 velocity=100 time=0>,\n",
       " <message note_on channel=0 note=54 velocity=0 time=120>,\n",
       " <message note_on channel=0 note=57 velocity=100 time=0>,\n",
       " <message note_on channel=0 note=57 velocity=0 time=120>,\n",
       " <message note_on channel=0 note=60 velocity=100 time=0>,\n",
       " <message note_on channel=0 note=60 velocity=0 time=120>,\n",
       " <message pitchwheel channel=0 pitch=4096 time=0>,\n",
       " <message note_on channel=0 note=59 velocity=100 time=0>,\n",
       " <message pitchwheel channel=0 pitch=0 time=40>,\n",
       " <message pitchwheel channel=0 pitch=4096 time=40>,\n",
       " <message pitchwheel channel=0 pitch=0 time=40>,\n",
       " <message pitchwheel channel=0 pitch=4096 time=40>,\n",
       " <message pitchwheel channel=0 pitch=0 time=40>,\n",
       " <message pitchwheel channel=0 pitch=4096 time=40>,\n",
       " <message pitchwheel channel=0 pitch=0 time=40>,\n",
       " <message note_on channel=0 note=59 velocity=0 time=80>,\n",
       " <message note_on channel=0 note=57 velocity=100 time=0>,\n",
       " <message note_on channel=0 note=57 velocity=0 time=120>,\n",
       " <message note_on channel=0 note=59 velocity=100 time=0>,\n",
       " <message note_on channel=0 note=59 velocity=0 time=360>,\n",
       " <message note_on channel=0 note=57 velocity=100 time=0>,\n",
       " <message note_on channel=0 note=57 velocity=0 time=120>,\n",
       " <message note_on channel=0 note=55 velocity=100 time=0>,\n",
       " <message note_on channel=0 note=55 velocity=0 time=120>,\n",
       " <message note_on channel=0 note=54 velocity=100 time=0>,\n",
       " <message note_on channel=0 note=54 velocity=0 time=120>,\n",
       " <message note_on channel=0 note=52 velocity=100 time=0>,\n",
       " <message note_on channel=0 note=52 velocity=0 time=120>,\n",
       " <message note_on channel=0 note=62 velocity=100 time=0>,\n",
       " <message note_on channel=0 note=62 velocity=0 time=120>,\n",
       " <message note_on channel=0 note=61 velocity=100 time=0>,\n",
       " <message note_on channel=0 note=61 velocity=0 time=120>,\n",
       " <message note_on channel=0 note=64 velocity=100 time=0>,\n",
       " <message note_on channel=0 note=64 velocity=0 time=120>,\n",
       " <message note_on channel=0 note=57 velocity=100 time=0>,\n",
       " <message note_on channel=0 note=57 velocity=0 time=120>,\n",
       " <message note_on channel=0 note=55 velocity=100 time=0>,\n",
       " <message note_on channel=0 note=55 velocity=0 time=120>,\n",
       " <message note_on channel=0 note=54 velocity=100 time=0>,\n",
       " <message note_on channel=0 note=54 velocity=0 time=120>,\n",
       " <message note_on channel=0 note=50 velocity=100 time=0>,\n",
       " <message note_on channel=0 note=50 velocity=0 time=120>,\n",
       " <message note_on channel=0 note=45 velocity=100 time=0>,\n",
       " <message note_on channel=0 note=45 velocity=0 time=120>,\n",
       " <message note_on channel=0 note=49 velocity=100 time=0>,\n",
       " <message note_on channel=0 note=49 velocity=0 time=120>,\n",
       " <message note_on channel=0 note=38 velocity=100 time=0>,\n",
       " <message note_on channel=0 note=38 velocity=0 time=360>,\n",
       " <message note_on channel=0 note=45 velocity=100 time=0>,\n",
       " <message note_on channel=0 note=45 velocity=0 time=120>,\n",
       " <message note_on channel=0 note=50 velocity=100 time=0>,\n",
       " <message note_on channel=0 note=50 velocity=0 time=120>,\n",
       " <message note_on channel=0 note=54 velocity=100 time=0>,\n",
       " <message note_on channel=0 note=54 velocity=0 time=120>,\n",
       " <message note_on channel=0 note=57 velocity=100 time=0>,\n",
       " <message note_on channel=0 note=57 velocity=0 time=120>,\n",
       " <message note_on channel=0 note=61 velocity=100 time=0>,\n",
       " <message note_on channel=0 note=61 velocity=0 time=120>,\n",
       " <message note_on channel=0 note=62 velocity=100 time=0>,\n",
       " <message note_on channel=0 note=62 velocity=0 time=120>,\n",
       " <message note_on channel=0 note=57 velocity=100 time=0>,\n",
       " <message note_on channel=0 note=57 velocity=0 time=120>,\n",
       " <message note_on channel=0 note=54 velocity=100 time=0>,\n",
       " <message note_on channel=0 note=54 velocity=0 time=120>,\n",
       " <message note_on channel=0 note=50 velocity=100 time=0>,\n",
       " <message note_on channel=0 note=50 velocity=0 time=120>,\n",
       " <message note_on channel=0 note=38 velocity=100 time=0>,\n",
       " <message note_on channel=0 note=38 velocity=0 time=360>,\n",
       " <message note_on channel=0 note=59 velocity=100 time=0>,\n",
       " <message note_on channel=0 note=59 velocity=0 time=120>,\n",
       " <message note_on channel=0 note=59 velocity=100 time=0>,\n",
       " <message note_on channel=0 note=59 velocity=0 time=600>,\n",
       " <message note_on channel=0 note=57 velocity=100 time=0>,\n",
       " <message note_on channel=0 note=57 velocity=0 time=120>,\n",
       " <message note_on channel=0 note=55 velocity=100 time=0>,\n",
       " <message note_on channel=0 note=55 velocity=0 time=120>,\n",
       " <message note_on channel=0 note=54 velocity=100 time=0>,\n",
       " <message note_on channel=0 note=54 velocity=0 time=120>,\n",
       " <message note_on channel=0 note=55 velocity=100 time=0>,\n",
       " <message note_on channel=0 note=55 velocity=0 time=120>,\n",
       " <message note_on channel=0 note=50 velocity=100 time=0>,\n",
       " <message note_on channel=0 note=50 velocity=0 time=120>,\n",
       " <message note_on channel=0 note=52 velocity=100 time=0>,\n",
       " <message note_on channel=0 note=52 velocity=0 time=120>,\n",
       " <message note_on channel=0 note=54 velocity=100 time=0>,\n",
       " <message note_on channel=0 note=54 velocity=0 time=120>,\n",
       " <message note_on channel=0 note=55 velocity=100 time=0>,\n",
       " <message note_on channel=0 note=55 velocity=0 time=120>,\n",
       " <message note_on channel=0 note=57 velocity=100 time=0>,\n",
       " <message note_on channel=0 note=57 velocity=0 time=120>,\n",
       " <message note_on channel=0 note=59 velocity=100 time=0>,\n",
       " <message note_on channel=0 note=59 velocity=0 time=120>,\n",
       " <message note_on channel=0 note=60 velocity=100 time=0>,\n",
       " <message note_on channel=0 note=60 velocity=0 time=120>,\n",
       " <message note_on channel=0 note=62 velocity=100 time=0>,\n",
       " <message note_on channel=0 note=62 velocity=0 time=120>,\n",
       " <message note_on channel=0 note=59 velocity=100 time=0>,\n",
       " <message note_on channel=0 note=59 velocity=0 time=120>,\n",
       " <message note_on channel=0 note=55 velocity=100 time=0>,\n",
       " <message note_on channel=0 note=55 velocity=0 time=120>,\n",
       " <message note_on channel=0 note=54 velocity=100 time=0>,\n",
       " <message note_on channel=0 note=54 velocity=0 time=120>,\n",
       " <message note_on channel=0 note=55 velocity=100 time=0>,\n",
       " <message note_on channel=0 note=55 velocity=0 time=120>,\n",
       " <message note_on channel=0 note=52 velocity=100 time=0>,\n",
       " <message note_on channel=0 note=52 velocity=0 time=120>,\n",
       " <message note_on channel=0 note=50 velocity=100 time=0>,\n",
       " <message note_on channel=0 note=50 velocity=0 time=120>,\n",
       " <message note_on channel=0 note=48 velocity=100 time=0>,\n",
       " <message note_on channel=0 note=48 velocity=0 time=120>,\n",
       " <message note_on channel=0 note=47 velocity=100 time=0>,\n",
       " <message note_on channel=0 note=47 velocity=0 time=120>,\n",
       " <message note_on channel=0 note=48 velocity=100 time=0>,\n",
       " <message note_on channel=0 note=48 velocity=0 time=120>,\n",
       " <message note_on channel=0 note=50 velocity=100 time=0>,\n",
       " <message note_on channel=0 note=50 velocity=0 time=120>,\n",
       " <message note_on channel=0 note=52 velocity=100 time=0>,\n",
       " <message note_on channel=0 note=52 velocity=0 time=120>,\n",
       " <message note_on channel=0 note=54 velocity=100 time=0>,\n",
       " <message note_on channel=0 note=54 velocity=0 time=120>,\n",
       " <message note_on channel=0 note=55 velocity=100 time=0>,\n",
       " <message note_on channel=0 note=55 velocity=0 time=120>,\n",
       " <message note_on channel=0 note=57 velocity=100 time=0>,\n",
       " <message note_on channel=0 note=57 velocity=0 time=120>,\n",
       " <message note_on channel=0 note=59 velocity=100 time=0>,\n",
       " <message note_on channel=0 note=59 velocity=0 time=120>,\n",
       " <message note_on channel=0 note=60 velocity=100 time=0>,\n",
       " <message note_on channel=0 note=60 velocity=0 time=120>,\n",
       " <message note_on channel=0 note=57 velocity=100 time=0>,\n",
       " <message note_on channel=0 note=57 velocity=0 time=120>,\n",
       " <message note_on channel=0 note=55 velocity=100 time=0>,\n",
       " <message note_on channel=0 note=55 velocity=0 time=120>,\n",
       " <message note_on channel=0 note=54 velocity=100 time=0>,\n",
       " <message note_on channel=0 note=54 velocity=0 time=120>,\n",
       " <message note_on channel=0 note=55 velocity=100 time=0>,\n",
       " <message note_on channel=0 note=55 velocity=0 time=120>,\n",
       " <message note_on channel=0 note=52 velocity=100 time=0>,\n",
       " <message note_on channel=0 note=52 velocity=0 time=120>,\n",
       " <message note_on channel=0 note=54 velocity=100 time=0>,\n",
       " <message note_on channel=0 note=54 velocity=0 time=120>,\n",
       " <message note_on channel=0 note=55 velocity=100 time=0>,\n",
       " <message note_on channel=0 note=55 velocity=0 time=120>,\n",
       " <message note_on channel=0 note=45 velocity=100 time=0>,\n",
       " <message note_on channel=0 note=45 velocity=0 time=120>,\n",
       " <message note_on channel=0 note=50 velocity=100 time=0>,\n",
       " <message note_on channel=0 note=50 velocity=0 time=120>,\n",
       " <message note_on channel=0 note=54 velocity=100 time=0>,\n",
       " <message note_on channel=0 note=54 velocity=0 time=120>,\n",
       " <message note_on channel=0 note=55 velocity=100 time=0>,\n",
       " <message note_on channel=0 note=55 velocity=0 time=120>,\n",
       " <message note_on channel=0 note=57 velocity=100 time=0>,\n",
       " <message note_on channel=0 note=57 velocity=0 time=120>,\n",
       " <message note_on channel=0 note=59 velocity=100 time=0>,\n",
       " <message note_on channel=0 note=59 velocity=0 time=120>,\n",
       " <message note_on channel=0 note=60 velocity=100 time=0>,\n",
       " <message note_on channel=0 note=60 velocity=0 time=120>,\n",
       " <message note_on channel=0 note=57 velocity=100 time=0>,\n",
       " <message note_on channel=0 note=57 velocity=0 time=120>,\n",
       " <message note_on channel=0 note=59 velocity=100 time=0>,\n",
       " <message note_on channel=0 note=59 velocity=0 time=120>,\n",
       " <message note_on channel=0 note=55 velocity=100 time=0>,\n",
       " <message note_on channel=0 note=55 velocity=0 time=120>,\n",
       " <message note_on channel=0 note=55 velocity=100 time=0>,\n",
       " <message note_on channel=0 note=55 velocity=0 time=120>,\n",
       " <message note_on channel=0 note=50 velocity=100 time=0>,\n",
       " <message note_on channel=0 note=50 velocity=0 time=120>,\n",
       " <message note_on channel=0 note=50 velocity=100 time=0>,\n",
       " <message note_on channel=0 note=50 velocity=0 time=120>,\n",
       " <message note_on channel=0 note=47 velocity=100 time=0>,\n",
       " <message note_on channel=0 note=47 velocity=0 time=120>,\n",
       " <message note_on channel=0 note=47 velocity=100 time=0>,\n",
       " <message note_on channel=0 note=47 velocity=0 time=120>,\n",
       " <message note_on channel=0 note=43 velocity=100 time=0>,\n",
       " <message note_on channel=0 note=43 velocity=0 time=120>,\n",
       " <message note_on channel=0 note=43 velocity=100 time=0>,\n",
       " <message note_on channel=0 note=43 velocity=0 time=360>,\n",
       " <message note_on channel=0 note=59 velocity=100 time=0>,\n",
       " <message note_on channel=0 note=59 velocity=0 time=120>,\n",
       " <message note_on channel=0 note=60 velocity=100 time=0>,\n",
       " <message note_on channel=0 note=60 velocity=0 time=120>,\n",
       " <message note_on channel=0 note=59 velocity=100 time=0>,\n",
       " <message note_on channel=0 note=59 velocity=0 time=120>,\n",
       " <message note_on channel=0 note=57 velocity=100 time=0>,\n",
       " <message note_on channel=0 note=57 velocity=0 time=120>,\n",
       " <message note_on channel=0 note=55 velocity=100 time=0>,\n",
       " <message note_on channel=0 note=55 velocity=0 time=120>,\n",
       " <message note_on channel=0 note=57 velocity=100 time=0>,\n",
       " <message note_on channel=0 note=57 velocity=0 time=120>,\n",
       " <message note_on channel=0 note=59 velocity=100 time=0>,\n",
       " <message note_on channel=0 note=59 velocity=0 time=120>,\n",
       " <message note_on channel=0 note=60 velocity=100 time=0>,\n",
       " <message note_on channel=0 note=60 velocity=0 time=120>,\n",
       " <message note_on channel=0 note=57 velocity=100 time=0>,\n",
       " <message note_on channel=0 note=57 velocity=0 time=120>,\n",
       " <message note_on channel=0 note=55 velocity=100 time=0>,\n",
       " <message note_on channel=0 note=55 velocity=0 time=120>,\n",
       " <message note_on channel=0 note=54 velocity=100 time=0>,\n",
       " <message note_on channel=0 note=54 velocity=0 time=120>,\n",
       " <message note_on channel=0 note=55 velocity=100 time=0>,\n",
       " <message note_on channel=0 note=55 velocity=0 time=120>,\n",
       " <message note_on channel=0 note=57 velocity=100 time=0>,\n",
       " <message note_on channel=0 note=57 velocity=0 time=120>,\n",
       " <message pitchwheel channel=0 pitch=4096 time=0>,\n",
       " <message note_on channel=0 note=51 velocity=100 time=0>,\n",
       " <message pitchwheel channel=0 pitch=0 time=40>,\n",
       " <message pitchwheel channel=0 pitch=4096 time=40>,\n",
       " <message pitchwheel channel=0 pitch=0 time=40>,\n",
       " <message note_on channel=0 note=51 velocity=0 time=240>,\n",
       " <message note_on channel=0 note=60 velocity=100 time=0>,\n",
       " <message note_on channel=0 note=60 velocity=0 time=120>,\n",
       " <message note_on channel=0 note=59 velocity=100 time=0>,\n",
       " <message note_on channel=0 note=59 velocity=0 time=120>,\n",
       " <message note_on channel=0 note=57 velocity=100 time=0>,\n",
       " <message note_on channel=0 note=57 velocity=0 time=120>,\n",
       " <message note_on channel=0 note=55 velocity=100 time=0>,\n",
       " <message note_on channel=0 note=55 velocity=0 time=120>,\n",
       " <message note_on channel=0 note=54 velocity=100 time=0>,\n",
       " <message note_on channel=0 note=54 velocity=0 time=120>,\n",
       " <message note_on channel=0 note=55 velocity=100 time=0>,\n",
       " <message note_on channel=0 note=55 velocity=0 time=120>,\n",
       " <message note_on channel=0 note=52 velocity=100 time=0>,\n",
       " <message note_on channel=0 note=52 velocity=0 time=120>,\n",
       " <message note_on channel=0 note=52 velocity=100 time=0>,\n",
       " <message note_on channel=0 note=52 velocity=0 time=120>,\n",
       " <message note_on channel=0 note=47 velocity=100 time=0>,\n",
       " <message note_on channel=0 note=47 velocity=0 time=120>,\n",
       " <message note_on channel=0 note=47 velocity=100 time=0>,\n",
       " <message note_on channel=0 note=47 velocity=0 time=120>,\n",
       " <message note_on channel=0 note=43 velocity=100 time=0>,\n",
       " <message note_on channel=0 note=43 velocity=0 time=120>,\n",
       " <message note_on channel=0 note=43 velocity=100 time=0>,\n",
       " <message note_on channel=0 note=43 velocity=0 time=120>,\n",
       " <message note_on channel=0 note=40 velocity=100 time=0>,\n",
       " <message note_on channel=0 note=40 velocity=0 time=120>,\n",
       " <message note_on channel=0 note=40 velocity=100 time=0>,\n",
       " <message note_on channel=0 note=40 velocity=0 time=360>,\n",
       " <message note_on channel=0 note=47 velocity=100 time=0>,\n",
       " <message note_on channel=0 note=47 velocity=0 time=120>,\n",
       " <message note_on channel=0 note=52 velocity=100 time=0>,\n",
       " <message note_on channel=0 note=52 velocity=0 time=120>,\n",
       " <message note_on channel=0 note=55 velocity=100 time=0>,\n",
       " <message note_on channel=0 note=55 velocity=0 time=120>,\n",
       " <message note_on channel=0 note=54 velocity=100 time=0>,\n",
       " <message note_on channel=0 note=54 velocity=0 time=120>,\n",
       " <message note_on channel=0 note=57 velocity=100 time=0>,\n",
       " <message note_on channel=0 note=57 velocity=0 time=120>,\n",
       " <message note_on channel=0 note=55 velocity=100 time=0>,\n",
       " <message note_on channel=0 note=55 velocity=0 time=120>,\n",
       " <message note_on channel=0 note=54 velocity=100 time=0>,\n",
       " <message note_on channel=0 note=54 velocity=0 time=120>,\n",
       " <message note_on channel=0 note=52 velocity=100 time=0>,\n",
       " <message note_on channel=0 note=52 velocity=0 time=120>,\n",
       " <message note_on channel=0 note=54 velocity=100 time=0>,\n",
       " <message note_on channel=0 note=54 velocity=0 time=120>,\n",
       " <message note_on channel=0 note=55 velocity=100 time=0>,\n",
       " <message note_on channel=0 note=55 velocity=0 time=120>,\n",
       " <message note_on channel=0 note=61 velocity=100 time=0>,\n",
       " <message note_on channel=0 note=61 velocity=0 time=120>,\n",
       " <message note_on channel=0 note=55 velocity=100 time=0>,\n",
       " <message note_on channel=0 note=55 velocity=0 time=120>,\n",
       " <message note_on channel=0 note=54 velocity=100 time=0>,\n",
       " <message note_on channel=0 note=54 velocity=0 time=120>,\n",
       " <message note_on channel=0 note=55 velocity=100 time=0>,\n",
       " <message note_on channel=0 note=55 velocity=0 time=120>,\n",
       " <message note_on channel=0 note=61 velocity=100 time=0>,\n",
       " <message note_on channel=0 note=61 velocity=0 time=120>,\n",
       " <message note_on channel=0 note=52 velocity=100 time=0>,\n",
       " <message note_on channel=0 note=52 velocity=0 time=120>,\n",
       " <message note_on channel=0 note=54 velocity=100 time=0>,\n",
       " <message note_on channel=0 note=54 velocity=0 time=120>,\n",
       " <message note_on channel=0 note=55 velocity=100 time=0>,\n",
       " <message note_on channel=0 note=55 velocity=0 time=120>,\n",
       " <message note_on channel=0 note=52 velocity=100 time=0>,\n",
       " <message note_on channel=0 note=52 velocity=0 time=120>,\n",
       " <message note_on channel=0 note=45 velocity=100 time=0>,\n",
       " <message note_on channel=0 note=45 velocity=0 time=120>,\n",
       " <message note_on channel=0 note=55 velocity=100 time=0>,\n",
       " <message note_on channel=0 note=55 velocity=0 time=120>,\n",
       " <message pitchwheel channel=0 pitch=4096 time=0>,\n",
       " <message note_on channel=0 note=54 velocity=100 time=0>,\n",
       " <message pitchwheel channel=0 pitch=0 time=40>,\n",
       " <message pitchwheel channel=0 pitch=4096 time=40>,\n",
       " <message pitchwheel channel=0 pitch=0 time=40>,\n",
       " <message note_on channel=0 note=54 velocity=0 time=120>,\n",
       " <message note_on channel=0 note=50 velocity=100 time=0>,\n",
       " <message note_on channel=0 note=50 velocity=0 time=120>,\n",
       " <message note_on channel=0 note=52 velocity=100 time=0>,\n",
       " <message note_on channel=0 note=52 velocity=0 time=120>,\n",
       " <message note_on channel=0 note=54 velocity=100 time=0>,\n",
       " <message note_on channel=0 note=54 velocity=0 time=120>,\n",
       " <message note_on channel=0 note=50 velocity=100 time=0>,\n",
       " <message note_on channel=0 note=50 velocity=0 time=120>,\n",
       " <message note_on channel=0 note=55 velocity=100 time=0>,\n",
       " <message note_on channel=0 note=55 velocity=0 time=120>,\n",
       " <message note_on channel=0 note=52 velocity=100 time=0>,\n",
       " <message note_on channel=0 note=52 velocity=0 time=120>,\n",
       " <message note_on channel=0 note=54 velocity=100 time=0>,\n",
       " <message note_on channel=0 note=54 velocity=0 time=120>,\n",
       " <message note_on channel=0 note=50 velocity=100 time=0>,\n",
       " <message note_on channel=0 note=50 velocity=0 time=120>,\n",
       " <message note_on channel=0 note=54 velocity=100 time=0>,\n",
       " <message note_on channel=0 note=54 velocity=0 time=120>,\n",
       " <message note_on channel=0 note=55 velocity=100 time=0>,\n",
       " <message note_on channel=0 note=55 velocity=0 time=120>,\n",
       " <message note_on channel=0 note=57 velocity=100 time=0>,\n",
       " <message note_on channel=0 note=57 velocity=0 time=120>,\n",
       " <message note_on channel=0 note=59 velocity=100 time=0>,\n",
       " <message note_on channel=0 note=59 velocity=0 time=120>,\n",
       " <message note_on channel=0 note=60 velocity=100 time=0>,\n",
       " <message note_on channel=0 note=60 velocity=0 time=120>,\n",
       " <message note_on channel=0 note=57 velocity=100 time=0>,\n",
       " <message note_on channel=0 note=57 velocity=0 time=120>,\n",
       " <message note_on channel=0 note=59 velocity=100 time=0>,\n",
       " <message note_on channel=0 note=59 velocity=0 time=120>,\n",
       " <message note_on channel=0 note=50 velocity=100 time=0>,\n",
       " <message note_on channel=0 note=50 velocity=0 time=120>,\n",
       " <message note_on channel=0 note=43 velocity=100 time=0>,\n",
       " <message note_on channel=0 note=43 velocity=0 time=120>,\n",
       " <message note_on channel=0 note=50 velocity=100 time=0>,\n",
       " <message note_on channel=0 note=50 velocity=0 time=120>,\n",
       " <message note_on channel=0 note=59 velocity=100 time=0>,\n",
       " <message note_on channel=0 note=59 velocity=0 time=120>,\n",
       " <message note_on channel=0 note=55 velocity=100 time=0>,\n",
       " <message note_on channel=0 note=55 velocity=0 time=120>,\n",
       " <message note_on channel=0 note=57 velocity=100 time=0>,\n",
       " <message note_on channel=0 note=57 velocity=0 time=120>,\n",
       " <message note_on channel=0 note=54 velocity=100 time=0>,\n",
       " <message note_on channel=0 note=54 velocity=0 time=120>,\n",
       " <message note_on channel=0 note=55 velocity=100 time=0>,\n",
       " <message note_on channel=0 note=55 velocity=0 time=120>,\n",
       " <message note_on channel=0 note=52 velocity=100 time=0>,\n",
       " <message note_on channel=0 note=52 velocity=0 time=120>,\n",
       " <message note_on channel=0 note=55 velocity=100 time=0>,\n",
       " <message note_on channel=0 note=55 velocity=0 time=120>,\n",
       " <message note_on channel=0 note=57 velocity=100 time=0>,\n",
       " <message note_on channel=0 note=57 velocity=0 time=120>,\n",
       " <message note_on channel=0 note=59 velocity=100 time=0>,\n",
       " <message note_on channel=0 note=59 velocity=0 time=120>,\n",
       " <message note_on channel=0 note=61 velocity=100 time=0>,\n",
       " <message note_on channel=0 note=61 velocity=0 time=120>,\n",
       " <message note_on channel=0 note=62 velocity=100 time=0>,\n",
       " <message note_on channel=0 note=62 velocity=0 time=120>,\n",
       " <message note_on channel=0 note=59 velocity=100 time=0>,\n",
       " <message note_on channel=0 note=59 velocity=0 time=120>,\n",
       " <message note_on channel=0 note=61 velocity=100 time=0>,\n",
       " <message note_on channel=0 note=61 velocity=0 time=120>,\n",
       " <message note_on channel=0 note=52 velocity=100 time=0>,\n",
       " <message note_on channel=0 note=52 velocity=0 time=120>,\n",
       " <message note_on channel=0 note=43 velocity=100 time=0>,\n",
       " <message note_on channel=0 note=43 velocity=0 time=120>,\n",
       " <message note_on channel=0 note=52 velocity=100 time=0>,\n",
       " <message note_on channel=0 note=52 velocity=0 time=120>,\n",
       " <message note_on channel=0 note=61 velocity=100 time=0>,\n",
       " <message note_on channel=0 note=61 velocity=0 time=120>,\n",
       " <message note_on channel=0 note=57 velocity=100 time=0>,\n",
       " <message note_on channel=0 note=57 velocity=0 time=120>,\n",
       " <message note_on channel=0 note=59 velocity=100 time=0>,\n",
       " <message note_on channel=0 note=59 velocity=0 time=120>,\n",
       " <message note_on channel=0 note=62 velocity=100 time=0>,\n",
       " <message note_on channel=0 note=62 velocity=0 time=120>,\n",
       " <message note_on channel=0 note=61 velocity=100 time=0>,\n",
       " <message note_on channel=0 note=61 velocity=0 time=120>,\n",
       " <message note_on channel=0 note=57 velocity=100 time=0>,\n",
       " <message note_on channel=0 note=57 velocity=0 time=120>,\n",
       " <message note_on channel=0 note=62 velocity=100 time=0>,\n",
       " <message note_on channel=0 note=62 velocity=0 time=120>,\n",
       " <message note_on channel=0 note=59 velocity=100 time=0>,\n",
       " <message note_on channel=0 note=59 velocity=0 time=120>,\n",
       " <message note_on channel=0 note=61 velocity=100 time=0>,\n",
       " <message note_on channel=0 note=61 velocity=0 time=120>,\n",
       " <message note_on channel=0 note=57 velocity=100 time=0>,\n",
       " <message note_on channel=0 note=57 velocity=0 time=120>,\n",
       " <message note_on channel=0 note=64 velocity=100 time=0>,\n",
       " <message note_on channel=0 note=64 velocity=0 time=120>,\n",
       " <message note_on channel=0 note=55 velocity=100 time=0>,\n",
       " <message note_on channel=0 note=55 velocity=0 time=120>,\n",
       " <message pitchwheel channel=0 pitch=4096 time=0>,\n",
       " <message note_on channel=0 note=54 velocity=100 time=0>,\n",
       " <message pitchwheel channel=0 pitch=0 time=40>,\n",
       " <message pitchwheel channel=0 pitch=4096 time=40>,\n",
       " <message pitchwheel channel=0 pitch=0 time=40>,\n",
       " <message note_on channel=0 note=54 velocity=0 time=240>,\n",
       " <message note_on channel=0 note=62 velocity=100 time=0>,\n",
       " <message note_on channel=0 note=62 velocity=0 time=120>,\n",
       " <message note_on channel=0 note=57 velocity=100 time=0>,\n",
       " <message note_on channel=0 note=57 velocity=0 time=120>,\n",
       " <message note_on channel=0 note=55 velocity=100 time=0>,\n",
       " <message note_on channel=0 note=55 velocity=0 time=120>,\n",
       " <message note_on channel=0 note=54 velocity=100 time=0>,\n",
       " <message note_on channel=0 note=54 velocity=0 time=120>,\n",
       " <message note_on channel=0 note=52 velocity=100 time=0>,\n",
       " <message note_on channel=0 note=52 velocity=0 time=120>,\n",
       " <message note_on channel=0 note=50 velocity=100 time=0>,\n",
       " <message note_on channel=0 note=50 velocity=0 time=120>,\n",
       " <message note_on channel=0 note=57 velocity=100 time=0>,\n",
       " <message note_on channel=0 note=57 velocity=0 time=120>,\n",
       " <message note_on channel=0 note=55 velocity=100 time=0>,\n",
       " <message note_on channel=0 note=55 velocity=0 time=120>,\n",
       " <message note_on channel=0 note=52 velocity=100 time=0>,\n",
       " <message note_on channel=0 note=52 velocity=0 time=120>,\n",
       " <message note_on channel=0 note=54 velocity=100 time=0>,\n",
       " <message note_on channel=0 note=54 velocity=0 time=120>,\n",
       " <message note_on channel=0 note=50 velocity=100 time=0>,\n",
       " <message note_on channel=0 note=50 velocity=0 time=120>,\n",
       " <message note_on channel=0 note=57 velocity=100 time=0>,\n",
       " <message note_on channel=0 note=57 velocity=0 time=120>,\n",
       " <message note_on channel=0 note=48 velocity=100 time=0>,\n",
       " <message note_on channel=0 note=48 velocity=0 time=120>,\n",
       " <message pitchwheel channel=0 pitch=4096 time=0>,\n",
       " <message note_on channel=0 note=47 velocity=100 time=0>,\n",
       " <message pitchwheel channel=0 pitch=0 time=44>,\n",
       " <message pitchwheel channel=0 pitch=4096 time=36>,\n",
       " <message pitchwheel channel=0 pitch=0 time=40>,\n",
       " <message note_on channel=0 note=47 velocity=0 time=240>,\n",
       " <message note_on channel=0 note=55 velocity=100 time=0>,\n",
       " <message note_on channel=0 note=55 velocity=0 time=120>,\n",
       " <message note_on channel=0 note=50 velocity=100 time=0>,\n",
       " <message note_on channel=0 note=50 velocity=0 time=120>,\n",
       " <message note_on channel=0 note=48 velocity=100 time=0>,\n",
       " <message note_on channel=0 note=48 velocity=0 time=120>,\n",
       " <message note_on channel=0 note=47 velocity=100 time=0>,\n",
       " <message note_on channel=0 note=47 velocity=0 time=120>,\n",
       " <message note_on channel=0 note=45 velocity=100 time=0>,\n",
       " <message note_on channel=0 note=45 velocity=0 time=120>,\n",
       " <message note_on channel=0 note=43 velocity=100 time=0>,\n",
       " <message note_on channel=0 note=43 velocity=0 time=120>,\n",
       " <message note_on channel=0 note=50 velocity=100 time=0>,\n",
       " <message note_on channel=0 note=50 velocity=0 time=120>,\n",
       " <message note_on channel=0 note=48 velocity=100 time=0>,\n",
       " <message note_on channel=0 note=48 velocity=0 time=120>,\n",
       " <message note_on channel=0 note=45 velocity=100 time=0>,\n",
       " <message note_on channel=0 note=45 velocity=0 time=120>,\n",
       " <message note_on channel=0 note=47 velocity=100 time=0>,\n",
       " <message note_on channel=0 note=47 velocity=0 time=120>,\n",
       " <message note_on channel=0 note=43 velocity=100 time=0>,\n",
       " <message note_on channel=0 note=43 velocity=0 time=120>,\n",
       " <message note_on channel=0 note=50 velocity=100 time=0>,\n",
       " <message note_on channel=0 note=50 velocity=0 time=120>,\n",
       " <message note_on channel=0 note=42 velocity=100 time=0>,\n",
       " <message note_on channel=0 note=42 velocity=0 time=120>,\n",
       " <message note_on channel=0 note=40 velocity=100 time=0>,\n",
       " <message note_on channel=0 note=40 velocity=0 time=120>,\n",
       " <message note_on channel=0 note=43 velocity=100 time=0>,\n",
       " <message note_on channel=0 note=43 velocity=0 time=120>,\n",
       " <message note_on channel=0 note=45 velocity=100 time=0>,\n",
       " <message note_on channel=0 note=45 velocity=0 time=120>,\n",
       " <message note_on channel=0 note=47 velocity=100 time=0>,\n",
       " <message note_on channel=0 note=47 velocity=0 time=120>,\n",
       " <message note_on channel=0 note=49 velocity=100 time=0>,\n",
       " <message note_on channel=0 note=49 velocity=0 time=120>,\n",
       " <message note_on channel=0 note=50 velocity=100 time=0>,\n",
       " <message note_on channel=0 note=50 velocity=0 time=120>,\n",
       " <message note_on channel=0 note=52 velocity=100 time=0>,\n",
       " <message note_on channel=0 note=52 velocity=0 time=120>,\n",
       " <message note_on channel=0 note=54 velocity=100 time=0>,\n",
       " <message note_on channel=0 note=54 velocity=0 time=120>,\n",
       " <message note_on channel=0 note=55 velocity=100 time=0>,\n",
       " <message note_on channel=0 note=55 velocity=0 time=120>,\n",
       " <message note_on channel=0 note=57 velocity=100 time=0>,\n",
       " <message note_on channel=0 note=57 velocity=0 time=120>,\n",
       " <message note_on channel=0 note=61 velocity=100 time=0>,\n",
       " <message note_on channel=0 note=61 velocity=0 time=120>,\n",
       " <message note_on channel=0 note=62 velocity=100 time=0>,\n",
       " <message note_on channel=0 note=62 velocity=0 time=120>,\n",
       " <message note_on channel=0 note=64 velocity=100 time=0>,\n",
       " <message note_on channel=0 note=64 velocity=0 time=120>,\n",
       " <message note_on channel=0 note=57 velocity=100 time=0>,\n",
       " <message note_on channel=0 note=57 velocity=0 time=120>,\n",
       " <message note_on channel=0 note=67 velocity=100 time=0>,\n",
       " <message note_on channel=0 note=67 velocity=0 time=240>,\n",
       " <message note_on channel=0 note=50 velocity=100 time=0>,\n",
       " <message note_on channel=0 note=50 velocity=0 time=120>,\n",
       " <message note_on channel=0 note=67 velocity=100 time=0>,\n",
       " <message note_on channel=0 note=67 velocity=0 time=120>,\n",
       " <message note_on channel=0 note=66 velocity=100 time=0>,\n",
       " <message note_on channel=0 note=66 velocity=0 time=120>,\n",
       " <message note_on channel=0 note=64 velocity=100 time=0>,\n",
       " <message note_on channel=0 note=64 velocity=0 time=120>,\n",
       " <message note_on channel=0 note=66 velocity=100 time=0>,\n",
       " <message note_on channel=0 note=66 velocity=0 time=120>,\n",
       " <message note_on channel=0 note=62 velocity=100 time=0>,\n",
       " <message note_on channel=0 note=62 velocity=0 time=120>,\n",
       " <message note_on channel=0 note=57 velocity=100 time=0>,\n",
       " <message note_on channel=0 note=57 velocity=0 time=120>,\n",
       " <message note_on channel=0 note=62 velocity=100 time=0>,\n",
       " <message note_on channel=0 note=62 velocity=0 time=120>,\n",
       " <message note_on channel=0 note=50 velocity=100 time=0>,\n",
       " <message note_on channel=0 note=50 velocity=0 time=120>,\n",
       " <message note_on channel=0 note=54 velocity=100 time=0>,\n",
       " <message note_on channel=0 note=54 velocity=0 time=120>,\n",
       " <message note_on channel=0 note=57 velocity=100 time=0>,\n",
       " <message note_on channel=0 note=57 velocity=0 time=120>,\n",
       " <message note_on channel=0 note=60 velocity=100 time=0>,\n",
       " <message note_on channel=0 note=60 velocity=0 time=120>,\n",
       " <message pitchwheel channel=0 pitch=4096 time=0>,\n",
       " <message note_on channel=0 note=59 velocity=100 time=0>,\n",
       " <message pitchwheel channel=0 pitch=0 time=40>,\n",
       " <message pitchwheel channel=0 pitch=4096 time=40>,\n",
       " <message pitchwheel channel=0 pitch=0 time=40>,\n",
       " <message pitchwheel channel=0 pitch=4096 time=40>,\n",
       " <message pitchwheel channel=0 pitch=0 time=40>,\n",
       " <message pitchwheel channel=0 pitch=4096 time=40>,\n",
       " <message pitchwheel channel=0 pitch=0 time=40>,\n",
       " <message note_on channel=0 note=59 velocity=0 time=80>,\n",
       " <message note_on channel=0 note=57 velocity=100 time=0>,\n",
       " <message note_on channel=0 note=57 velocity=0 time=120>,\n",
       " <message note_on channel=0 note=59 velocity=100 time=0>,\n",
       " <message note_on channel=0 note=59 velocity=0 time=360>,\n",
       " <message note_on channel=0 note=57 velocity=100 time=0>,\n",
       " <message note_on channel=0 note=57 velocity=0 time=120>,\n",
       " <message note_on channel=0 note=55 velocity=100 time=0>,\n",
       " <message note_on channel=0 note=55 velocity=0 time=120>,\n",
       " <message note_on channel=0 note=54 velocity=100 time=0>,\n",
       " <message note_on channel=0 note=54 velocity=0 time=120>,\n",
       " <message note_on channel=0 note=52 velocity=100 time=0>,\n",
       " <message note_on channel=0 note=52 velocity=0 time=120>,\n",
       " <message note_on channel=0 note=62 velocity=100 time=0>,\n",
       " <message note_on channel=0 note=62 velocity=0 time=120>,\n",
       " <message note_on channel=0 note=61 velocity=100 time=0>,\n",
       " <message note_on channel=0 note=61 velocity=0 time=120>,\n",
       " <message note_on channel=0 note=64 velocity=100 time=0>,\n",
       " <message note_on channel=0 note=64 velocity=0 time=120>,\n",
       " <message note_on channel=0 note=57 velocity=100 time=0>,\n",
       " <message note_on channel=0 note=57 velocity=0 time=120>,\n",
       " <message note_on channel=0 note=55 velocity=100 time=0>,\n",
       " <message note_on channel=0 note=55 velocity=0 time=120>,\n",
       " <message note_on channel=0 note=54 velocity=100 time=0>,\n",
       " <message note_on channel=0 note=54 velocity=0 time=120>,\n",
       " <message note_on channel=0 note=50 velocity=100 time=0>,\n",
       " <message note_on channel=0 note=50 velocity=0 time=120>,\n",
       " <message note_on channel=0 note=45 velocity=100 time=0>,\n",
       " <message note_on channel=0 note=45 velocity=0 time=120>,\n",
       " <message note_on channel=0 note=49 velocity=100 time=0>,\n",
       " <message note_on channel=0 note=49 velocity=0 time=120>,\n",
       " <message note_on channel=0 note=38 velocity=100 time=0>,\n",
       " <message note_on channel=0 note=38 velocity=0 time=360>,\n",
       " <message note_on channel=0 note=45 velocity=100 time=0>,\n",
       " <message note_on channel=0 note=45 velocity=0 time=120>,\n",
       " <message note_on channel=0 note=50 velocity=100 time=0>,\n",
       " <message note_on channel=0 note=50 velocity=0 time=120>,\n",
       " <message note_on channel=0 note=54 velocity=100 time=0>,\n",
       " <message note_on channel=0 note=54 velocity=0 time=120>,\n",
       " <message note_on channel=0 note=57 velocity=100 time=0>,\n",
       " <message note_on channel=0 note=57 velocity=0 time=120>,\n",
       " <message note_on channel=0 note=61 velocity=100 time=0>,\n",
       " <message note_on channel=0 note=61 velocity=0 time=120>,\n",
       " <message note_on channel=0 note=62 velocity=100 time=0>,\n",
       " <message note_on channel=0 note=62 velocity=0 time=120>,\n",
       " <message note_on channel=0 note=57 velocity=100 time=0>,\n",
       " <message note_on channel=0 note=57 velocity=0 time=120>,\n",
       " <message note_on channel=0 note=54 velocity=100 time=0>,\n",
       " <message note_on channel=0 note=54 velocity=0 time=120>,\n",
       " <message note_on channel=0 note=50 velocity=100 time=0>,\n",
       " <message note_on channel=0 note=50 velocity=0 time=120>,\n",
       " <message note_on channel=0 note=38 velocity=100 time=0>,\n",
       " <message note_on channel=0 note=38 velocity=0 time=360>,\n",
       " <message note_on channel=0 note=57 velocity=100 time=0>,\n",
       " <message note_on channel=0 note=57 velocity=0 time=120>,\n",
       " <message note_on channel=0 note=57 velocity=100 time=0>,\n",
       " <message note_on channel=0 note=57 velocity=0 time=600>,\n",
       " <message note_on channel=0 note=54 velocity=100 time=0>,\n",
       " <message note_on channel=0 note=54 velocity=0 time=120>,\n",
       " <message note_on channel=0 note=55 velocity=100 time=0>,\n",
       " <message note_on channel=0 note=55 velocity=0 time=120>,\n",
       " <message note_on channel=0 note=57 velocity=100 time=0>,\n",
       " <message note_on channel=0 note=57 velocity=0 time=120>,\n",
       " <message note_on channel=0 note=50 velocity=100 time=0>,\n",
       " <message note_on channel=0 note=50 velocity=0 time=120>,\n",
       " <message note_on channel=0 note=52 velocity=100 time=0>,\n",
       " <message note_on channel=0 note=52 velocity=0 time=120>,\n",
       " <message note_on channel=0 note=54 velocity=100 time=0>,\n",
       " <message note_on channel=0 note=54 velocity=0 time=120>,\n",
       " <message note_on channel=0 note=55 velocity=100 time=0>,\n",
       " <message note_on channel=0 note=55 velocity=0 time=120>,\n",
       " <message note_on channel=0 note=57 velocity=100 time=0>,\n",
       " ...]"
      ]
     },
     "execution_count": 64,
     "metadata": {},
     "output_type": "execute_result"
    }
   ],
   "source": [
    "[msg for msg in file.tracks[1]]"
   ]
  },
  {
   "cell_type": "code",
   "execution_count": 56,
   "metadata": {},
   "outputs": [
    {
     "data": {
      "text/plain": [
       "480"
      ]
     },
     "execution_count": 56,
     "metadata": {},
     "output_type": "execute_result"
    }
   ],
   "source": [
    "file.ticks_per_beat"
   ]
  },
  {
   "cell_type": "code",
   "execution_count": 53,
   "metadata": {},
   "outputs": [
    {
     "data": {
      "text/plain": [
       "['__class__',\n",
       " '__delattr__',\n",
       " '__dict__',\n",
       " '__dir__',\n",
       " '__doc__',\n",
       " '__enter__',\n",
       " '__eq__',\n",
       " '__exit__',\n",
       " '__format__',\n",
       " '__ge__',\n",
       " '__getattribute__',\n",
       " '__gt__',\n",
       " '__hash__',\n",
       " '__init__',\n",
       " '__init_subclass__',\n",
       " '__iter__',\n",
       " '__le__',\n",
       " '__lt__',\n",
       " '__module__',\n",
       " '__ne__',\n",
       " '__new__',\n",
       " '__reduce__',\n",
       " '__reduce_ex__',\n",
       " '__repr__',\n",
       " '__setattr__',\n",
       " '__sizeof__',\n",
       " '__str__',\n",
       " '__subclasshook__',\n",
       " '__weakref__',\n",
       " '_load',\n",
       " '_save',\n",
       " 'add_track',\n",
       " 'charset',\n",
       " 'clip',\n",
       " 'debug',\n",
       " 'filename',\n",
       " 'length',\n",
       " 'play',\n",
       " 'print_tracks',\n",
       " 'save',\n",
       " 'ticks_per_beat',\n",
       " 'tracks',\n",
       " 'type']"
      ]
     },
     "execution_count": 53,
     "metadata": {},
     "output_type": "execute_result"
    }
   ],
   "source": [
    "dir(file)"
   ]
  },
  {
   "cell_type": "code",
   "execution_count": 95,
   "metadata": {},
   "outputs": [
    {
     "data": {
      "text/plain": [
       "[<meta message track_name name='untitled' time=0>,\n",
       " <meta message smpte_offset frame_rate=25 hours=32 minutes=0 seconds=3 frames=0 sub_frames=0 time=0>,\n",
       " <meta message time_signature numerator=4 denominator=4 clocks_per_click=24 notated_32nd_notes_per_beat=8 time=0>,\n",
       " <meta message key_signature key='G' time=0>,\n",
       " <meta message set_tempo tempo=240000 time=0>,\n",
       " <meta message midi_port port=0 time=0>,\n",
       " <meta message track_name name='Solo Cello' time=0>,\n",
       " <message program_change channel=0 program=42 time=0>,\n",
       " <message control_change channel=0 control=7 value=100 time=0>,\n",
       " <message control_change channel=0 control=10 value=64 time=0>,\n",
       " <meta message midi_port port=0 time=0>,\n",
       " <meta message track_name name='--------------------------------------' time=0>,\n",
       " <message program_change channel=1 program=42 time=0>,\n",
       " <message control_change channel=1 control=7 value=100 time=0>,\n",
       " <message control_change channel=1 control=10 value=74 time=0>,\n",
       " <meta message midi_port port=0 time=0>,\n",
       " <meta message track_name name='Johann Sebastian Bach  (1685-1750)' time=0>,\n",
       " <message program_change channel=2 program=42 time=0>,\n",
       " <message control_change channel=2 control=7 value=100 time=0>,\n",
       " <message control_change channel=2 control=10 value=54 time=0>,\n",
       " <meta message midi_port port=0 time=0>,\n",
       " <meta message track_name name='Six Suites for Solo Cello' time=0>,\n",
       " <meta message midi_port port=0 time=0>,\n",
       " <meta message track_name name='--------------------------------------' time=0>,\n",
       " <meta message midi_port port=0 time=0>,\n",
       " <meta message track_name name='Suite No. 1 in G major - BWV 1007' time=0>,\n",
       " <meta message midi_port port=0 time=0>,\n",
       " <meta message track_name name='2nd Movement: Allemande' time=0>,\n",
       " <meta message midi_port port=0 time=0>,\n",
       " <meta message track_name name='--------------------------------------' time=0>,\n",
       " <meta message midi_port port=0 time=0>,\n",
       " <meta message track_name name='Sequenced with Cakewalk Pro Audio by' time=0>,\n",
       " <meta message midi_port port=0 time=0>,\n",
       " <meta message track_name name='David J. Grossman - dave@unpronounceable.com' time=0>,\n",
       " <meta message midi_port port=0 time=0>,\n",
       " <meta message track_name name='This and other Bach MIDI files can be found at:' time=0>,\n",
       " <meta message midi_port port=0 time=0>,\n",
       " <meta message track_name name=\"Dave's J.S. Bach Page\" time=0>,\n",
       " <meta message midi_port port=0 time=0>,\n",
       " <meta message track_name name='http://www.unpronounceable.com/bach' time=0>,\n",
       " <meta message midi_port port=0 time=0>,\n",
       " <meta message track_name name='--------------------------------------' time=0>,\n",
       " <meta message midi_port port=0 time=0>,\n",
       " <meta message track_name name='Original Filename: cs1-2all.mid' time=0>,\n",
       " <meta message midi_port port=0 time=0>,\n",
       " <meta message track_name name='Last Modified: February 22, 1997' time=0>,\n",
       " <meta message set_tempo tempo=779221 time=0.84>,\n",
       " <message note_on channel=0 note=59 velocity=100 time=0.19480524999999999>,\n",
       " <meta message marker text='A' time=0.19480524999999999>,\n",
       " <message note_on channel=0 note=59 velocity=0 time=0>,\n",
       " <message note_on channel=0 note=59 velocity=100 time=0>,\n",
       " <message note_on channel=1 note=50 velocity=100 time=0>,\n",
       " <message note_on channel=2 note=43 velocity=100 time=0>,\n",
       " <message note_on channel=1 note=50 velocity=0 time=0.7792209999999999>,\n",
       " <message note_on channel=2 note=43 velocity=0 time=0>,\n",
       " <message note_on channel=0 note=59 velocity=0 time=0.19480524999999999>,\n",
       " <message note_on channel=0 note=57 velocity=100 time=0>,\n",
       " <message note_on channel=0 note=57 velocity=0 time=0.19480524999999999>,\n",
       " <message note_on channel=0 note=55 velocity=100 time=0>,\n",
       " <message note_on channel=0 note=55 velocity=0 time=0.19480524999999999>,\n",
       " <message note_on channel=0 note=54 velocity=100 time=0>,\n",
       " <message note_on channel=0 note=54 velocity=0 time=0.19480524999999999>,\n",
       " <message note_on channel=0 note=55 velocity=100 time=0>,\n",
       " <message note_on channel=0 note=55 velocity=0 time=0.19480524999999999>,\n",
       " <message note_on channel=0 note=50 velocity=100 time=0>,\n",
       " <message note_on channel=0 note=50 velocity=0 time=0.19480524999999999>,\n",
       " <message note_on channel=0 note=52 velocity=100 time=0>,\n",
       " <message note_on channel=0 note=52 velocity=0 time=0.19480524999999999>,\n",
       " <message note_on channel=0 note=54 velocity=100 time=0>,\n",
       " <message note_on channel=0 note=54 velocity=0 time=0.19480524999999999>,\n",
       " <message note_on channel=0 note=55 velocity=100 time=0>,\n",
       " <message note_on channel=0 note=55 velocity=0 time=0.19480524999999999>,\n",
       " <message note_on channel=0 note=57 velocity=100 time=0>,\n",
       " <message note_on channel=0 note=57 velocity=0 time=0.19480524999999999>,\n",
       " <message note_on channel=0 note=59 velocity=100 time=0>,\n",
       " <message note_on channel=0 note=59 velocity=0 time=0.19480524999999999>,\n",
       " <message note_on channel=0 note=60 velocity=100 time=0>,\n",
       " <message note_on channel=0 note=60 velocity=0 time=0.19480524999999999>,\n",
       " <message note_on channel=0 note=62 velocity=100 time=0>,\n",
       " <message note_on channel=0 note=62 velocity=0 time=0.19480524999999999>,\n",
       " <message note_on channel=0 note=59 velocity=100 time=0>,\n",
       " <message note_on channel=0 note=59 velocity=0 time=0.19480524999999999>,\n",
       " <message note_on channel=0 note=55 velocity=100 time=0>,\n",
       " <message note_on channel=0 note=55 velocity=0 time=0.19480524999999999>,\n",
       " <message note_on channel=0 note=54 velocity=100 time=0>,\n",
       " <message note_on channel=0 note=54 velocity=0 time=0.19480524999999999>,\n",
       " <message note_on channel=0 note=55 velocity=100 time=0>,\n",
       " <message note_on channel=0 note=55 velocity=0 time=0.19480524999999999>,\n",
       " <message note_on channel=0 note=52 velocity=100 time=0>,\n",
       " <message note_on channel=0 note=52 velocity=0 time=0.19480524999999999>,\n",
       " <message note_on channel=0 note=50 velocity=100 time=0>,\n",
       " <message note_on channel=0 note=50 velocity=0 time=0.19480524999999999>,\n",
       " <message note_on channel=0 note=48 velocity=100 time=0>,\n",
       " <message note_on channel=0 note=48 velocity=0 time=0.19480524999999999>,\n",
       " <message note_on channel=0 note=47 velocity=100 time=0>,\n",
       " <message note_on channel=0 note=47 velocity=0 time=0.19480524999999999>,\n",
       " <message note_on channel=0 note=48 velocity=100 time=0>,\n",
       " <message note_on channel=0 note=48 velocity=0 time=0.19480524999999999>,\n",
       " <message note_on channel=0 note=50 velocity=100 time=0>,\n",
       " <message note_on channel=0 note=50 velocity=0 time=0.19480524999999999>,\n",
       " <message note_on channel=0 note=52 velocity=100 time=0>,\n",
       " <message note_on channel=0 note=52 velocity=0 time=0.19480524999999999>,\n",
       " <message note_on channel=0 note=54 velocity=100 time=0>,\n",
       " <message note_on channel=0 note=54 velocity=0 time=0.19480524999999999>,\n",
       " <message note_on channel=0 note=55 velocity=100 time=0>,\n",
       " <message note_on channel=0 note=55 velocity=0 time=0.19480524999999999>,\n",
       " <message note_on channel=0 note=57 velocity=100 time=0>,\n",
       " <message note_on channel=0 note=57 velocity=0 time=0.19480524999999999>,\n",
       " <message note_on channel=0 note=59 velocity=100 time=0>,\n",
       " <message note_on channel=0 note=59 velocity=0 time=0.19480524999999999>,\n",
       " <message note_on channel=0 note=60 velocity=100 time=0>,\n",
       " <message note_on channel=0 note=60 velocity=0 time=0.19480524999999999>,\n",
       " <message note_on channel=0 note=57 velocity=100 time=0>,\n",
       " <message note_on channel=0 note=57 velocity=0 time=0.19480524999999999>,\n",
       " <message note_on channel=0 note=55 velocity=100 time=0>,\n",
       " <message note_on channel=0 note=55 velocity=0 time=0.19480524999999999>,\n",
       " <message note_on channel=0 note=54 velocity=100 time=0>,\n",
       " <message note_on channel=0 note=54 velocity=0 time=0.19480524999999999>,\n",
       " <message note_on channel=0 note=55 velocity=100 time=0>,\n",
       " <message note_on channel=0 note=55 velocity=0 time=0.19480524999999999>,\n",
       " <message note_on channel=0 note=52 velocity=100 time=0>,\n",
       " <message note_on channel=0 note=52 velocity=0 time=0.19480524999999999>,\n",
       " <message note_on channel=0 note=54 velocity=100 time=0>,\n",
       " <message note_on channel=0 note=54 velocity=0 time=0.19480524999999999>,\n",
       " <message note_on channel=0 note=55 velocity=100 time=0>,\n",
       " <message note_on channel=0 note=55 velocity=0 time=0.19480524999999999>,\n",
       " <message note_on channel=0 note=45 velocity=100 time=0>,\n",
       " <message note_on channel=0 note=45 velocity=0 time=0.19480524999999999>,\n",
       " <message note_on channel=0 note=50 velocity=100 time=0>,\n",
       " <message note_on channel=0 note=50 velocity=0 time=0.19480524999999999>,\n",
       " <message note_on channel=0 note=54 velocity=100 time=0>,\n",
       " <message note_on channel=0 note=54 velocity=0 time=0.19480524999999999>,\n",
       " <message note_on channel=0 note=55 velocity=100 time=0>,\n",
       " <message note_on channel=0 note=55 velocity=0 time=0.19480524999999999>,\n",
       " <message note_on channel=0 note=57 velocity=100 time=0>,\n",
       " <message note_on channel=0 note=57 velocity=0 time=0.19480524999999999>,\n",
       " <message note_on channel=0 note=59 velocity=100 time=0>,\n",
       " <message note_on channel=0 note=59 velocity=0 time=0.19480524999999999>,\n",
       " <message note_on channel=0 note=60 velocity=100 time=0>,\n",
       " <message note_on channel=0 note=60 velocity=0 time=0.19480524999999999>,\n",
       " <message note_on channel=0 note=57 velocity=100 time=0>,\n",
       " <message note_on channel=0 note=57 velocity=0 time=0.19480524999999999>,\n",
       " <message note_on channel=0 note=59 velocity=100 time=0>,\n",
       " <message note_on channel=0 note=59 velocity=0 time=0.19480524999999999>,\n",
       " <message note_on channel=0 note=55 velocity=100 time=0>,\n",
       " <message note_on channel=0 note=55 velocity=0 time=0.19480524999999999>,\n",
       " <message note_on channel=0 note=55 velocity=100 time=0>,\n",
       " <message note_on channel=0 note=55 velocity=0 time=0.19480524999999999>,\n",
       " <message note_on channel=0 note=50 velocity=100 time=0>,\n",
       " <message note_on channel=0 note=50 velocity=0 time=0.19480524999999999>,\n",
       " <message note_on channel=0 note=50 velocity=100 time=0>,\n",
       " <message note_on channel=0 note=50 velocity=0 time=0.19480524999999999>,\n",
       " <message note_on channel=0 note=47 velocity=100 time=0>,\n",
       " <message note_on channel=0 note=47 velocity=0 time=0.19480524999999999>,\n",
       " <message note_on channel=0 note=47 velocity=100 time=0>,\n",
       " <message note_on channel=0 note=47 velocity=0 time=0.19480524999999999>,\n",
       " <message note_on channel=0 note=43 velocity=100 time=0>,\n",
       " <message note_on channel=0 note=43 velocity=0 time=0.19480524999999999>,\n",
       " <message note_on channel=0 note=43 velocity=100 time=0>,\n",
       " <message note_on channel=0 note=43 velocity=0 time=0.5844157499999999>,\n",
       " <message note_on channel=0 note=59 velocity=100 time=0>,\n",
       " <message note_on channel=0 note=59 velocity=0 time=0.19480524999999999>,\n",
       " <message note_on channel=0 note=60 velocity=100 time=0>,\n",
       " <message note_on channel=0 note=60 velocity=0 time=0.19480524999999999>,\n",
       " <message note_on channel=0 note=59 velocity=100 time=0>,\n",
       " <message note_on channel=0 note=59 velocity=0 time=0.19480524999999999>,\n",
       " <message note_on channel=0 note=57 velocity=100 time=0>,\n",
       " <message note_on channel=0 note=57 velocity=0 time=0.19480524999999999>,\n",
       " <message note_on channel=0 note=55 velocity=100 time=0>,\n",
       " <message note_on channel=0 note=55 velocity=0 time=0.19480524999999999>,\n",
       " <message note_on channel=0 note=57 velocity=100 time=0>,\n",
       " <message note_on channel=0 note=57 velocity=0 time=0.19480524999999999>,\n",
       " <message note_on channel=0 note=59 velocity=100 time=0>,\n",
       " <message note_on channel=0 note=59 velocity=0 time=0.19480524999999999>,\n",
       " <message note_on channel=0 note=60 velocity=100 time=0>,\n",
       " <message note_on channel=0 note=60 velocity=0 time=0.19480524999999999>,\n",
       " <message note_on channel=0 note=57 velocity=100 time=0>,\n",
       " <message note_on channel=0 note=57 velocity=0 time=0.19480524999999999>,\n",
       " <message note_on channel=0 note=55 velocity=100 time=0>,\n",
       " <message note_on channel=0 note=55 velocity=0 time=0.19480524999999999>,\n",
       " <message note_on channel=0 note=54 velocity=100 time=0>,\n",
       " <message note_on channel=0 note=54 velocity=0 time=0.19480524999999999>,\n",
       " <message note_on channel=0 note=55 velocity=100 time=0>,\n",
       " <message note_on channel=0 note=55 velocity=0 time=0.19480524999999999>,\n",
       " <message note_on channel=0 note=57 velocity=100 time=0>,\n",
       " <message note_on channel=0 note=57 velocity=0 time=0.19480524999999999>,\n",
       " <message pitchwheel channel=0 pitch=4096 time=0>,\n",
       " <message note_on channel=0 note=51 velocity=100 time=0>,\n",
       " <message pitchwheel channel=0 pitch=0 time=0.06493508333333332>,\n",
       " <message pitchwheel channel=0 pitch=4096 time=0.06493508333333332>,\n",
       " <message pitchwheel channel=0 pitch=0 time=0.06493508333333332>,\n",
       " <message note_on channel=0 note=51 velocity=0 time=0.38961049999999997>,\n",
       " <message note_on channel=0 note=60 velocity=100 time=0>,\n",
       " <message note_on channel=0 note=60 velocity=0 time=0.19480524999999999>,\n",
       " <message note_on channel=0 note=59 velocity=100 time=0>,\n",
       " <message note_on channel=0 note=59 velocity=0 time=0.19480524999999999>,\n",
       " <message note_on channel=0 note=57 velocity=100 time=0>,\n",
       " <message note_on channel=0 note=57 velocity=0 time=0.19480524999999999>,\n",
       " <message note_on channel=0 note=55 velocity=100 time=0>,\n",
       " <message note_on channel=0 note=55 velocity=0 time=0.19480524999999999>,\n",
       " <message note_on channel=0 note=54 velocity=100 time=0>,\n",
       " <message note_on channel=0 note=54 velocity=0 time=0.19480524999999999>,\n",
       " <message note_on channel=0 note=55 velocity=100 time=0>,\n",
       " <message note_on channel=0 note=55 velocity=0 time=0.19480524999999999>,\n",
       " <message note_on channel=0 note=52 velocity=100 time=0>,\n",
       " <message note_on channel=0 note=52 velocity=0 time=0.19480524999999999>,\n",
       " <message note_on channel=0 note=52 velocity=100 time=0>,\n",
       " <message note_on channel=0 note=52 velocity=0 time=0.19480524999999999>,\n",
       " <message note_on channel=0 note=47 velocity=100 time=0>,\n",
       " <message note_on channel=0 note=47 velocity=0 time=0.19480524999999999>,\n",
       " <message note_on channel=0 note=47 velocity=100 time=0>,\n",
       " <message note_on channel=0 note=47 velocity=0 time=0.19480524999999999>,\n",
       " <message note_on channel=0 note=43 velocity=100 time=0>,\n",
       " <message note_on channel=0 note=43 velocity=0 time=0.19480524999999999>,\n",
       " <message note_on channel=0 note=43 velocity=100 time=0>,\n",
       " <message note_on channel=0 note=43 velocity=0 time=0.19480524999999999>,\n",
       " <message note_on channel=0 note=40 velocity=100 time=0>,\n",
       " <message note_on channel=0 note=40 velocity=0 time=0.19480524999999999>,\n",
       " <message note_on channel=0 note=40 velocity=100 time=0>,\n",
       " <message note_on channel=0 note=40 velocity=0 time=0.5844157499999999>,\n",
       " <message note_on channel=0 note=47 velocity=100 time=0>,\n",
       " <message note_on channel=0 note=47 velocity=0 time=0.19480524999999999>,\n",
       " <message note_on channel=0 note=52 velocity=100 time=0>,\n",
       " <message note_on channel=0 note=52 velocity=0 time=0.19480524999999999>,\n",
       " <message note_on channel=0 note=55 velocity=100 time=0>,\n",
       " <message note_on channel=0 note=55 velocity=0 time=0.19480524999999999>,\n",
       " <message note_on channel=0 note=54 velocity=100 time=0>,\n",
       " <message note_on channel=0 note=54 velocity=0 time=0.19480524999999999>,\n",
       " <message note_on channel=0 note=57 velocity=100 time=0>,\n",
       " <message note_on channel=0 note=57 velocity=0 time=0.19480524999999999>,\n",
       " <message note_on channel=0 note=55 velocity=100 time=0>,\n",
       " <message note_on channel=0 note=55 velocity=0 time=0.19480524999999999>,\n",
       " <message note_on channel=0 note=54 velocity=100 time=0>,\n",
       " <message note_on channel=0 note=54 velocity=0 time=0.19480524999999999>,\n",
       " <message note_on channel=0 note=52 velocity=100 time=0>,\n",
       " <message note_on channel=0 note=52 velocity=0 time=0.19480524999999999>,\n",
       " <message note_on channel=0 note=54 velocity=100 time=0>,\n",
       " <message note_on channel=0 note=54 velocity=0 time=0.19480524999999999>,\n",
       " <message note_on channel=0 note=55 velocity=100 time=0>,\n",
       " <message note_on channel=0 note=55 velocity=0 time=0.19480524999999999>,\n",
       " <message note_on channel=0 note=61 velocity=100 time=0>,\n",
       " <message note_on channel=0 note=61 velocity=0 time=0.19480524999999999>,\n",
       " <message note_on channel=0 note=55 velocity=100 time=0>,\n",
       " <message note_on channel=0 note=55 velocity=0 time=0.19480524999999999>,\n",
       " <message note_on channel=0 note=54 velocity=100 time=0>,\n",
       " <message note_on channel=0 note=54 velocity=0 time=0.19480524999999999>,\n",
       " <message note_on channel=0 note=55 velocity=100 time=0>,\n",
       " <message note_on channel=0 note=55 velocity=0 time=0.19480524999999999>,\n",
       " <message note_on channel=0 note=61 velocity=100 time=0>,\n",
       " <message note_on channel=0 note=61 velocity=0 time=0.19480524999999999>,\n",
       " <message note_on channel=0 note=52 velocity=100 time=0>,\n",
       " <message note_on channel=0 note=52 velocity=0 time=0.19480524999999999>,\n",
       " <message note_on channel=0 note=54 velocity=100 time=0>,\n",
       " <message note_on channel=0 note=54 velocity=0 time=0.19480524999999999>,\n",
       " <message note_on channel=0 note=55 velocity=100 time=0>,\n",
       " <message note_on channel=0 note=55 velocity=0 time=0.19480524999999999>,\n",
       " <message note_on channel=0 note=52 velocity=100 time=0>,\n",
       " <message note_on channel=0 note=52 velocity=0 time=0.19480524999999999>,\n",
       " <message note_on channel=0 note=45 velocity=100 time=0>,\n",
       " <message note_on channel=0 note=45 velocity=0 time=0.19480524999999999>,\n",
       " <message note_on channel=0 note=55 velocity=100 time=0>,\n",
       " <message note_on channel=0 note=55 velocity=0 time=0.19480524999999999>,\n",
       " <message pitchwheel channel=0 pitch=4096 time=0>,\n",
       " <message note_on channel=0 note=54 velocity=100 time=0>,\n",
       " <message pitchwheel channel=0 pitch=0 time=0.06493508333333332>,\n",
       " <message pitchwheel channel=0 pitch=4096 time=0.06493508333333332>,\n",
       " <message pitchwheel channel=0 pitch=0 time=0.06493508333333332>,\n",
       " <message note_on channel=0 note=54 velocity=0 time=0.19480524999999999>,\n",
       " <message note_on channel=0 note=50 velocity=100 time=0>,\n",
       " <message note_on channel=0 note=50 velocity=0 time=0.19480524999999999>,\n",
       " <message note_on channel=0 note=52 velocity=100 time=0>,\n",
       " <message note_on channel=0 note=52 velocity=0 time=0.19480524999999999>,\n",
       " <message note_on channel=0 note=54 velocity=100 time=0>,\n",
       " <message note_on channel=0 note=54 velocity=0 time=0.19480524999999999>,\n",
       " <message note_on channel=0 note=50 velocity=100 time=0>,\n",
       " <message note_on channel=0 note=50 velocity=0 time=0.19480524999999999>,\n",
       " <message note_on channel=0 note=55 velocity=100 time=0>,\n",
       " <message note_on channel=0 note=55 velocity=0 time=0.19480524999999999>,\n",
       " <message note_on channel=0 note=52 velocity=100 time=0>,\n",
       " <message note_on channel=0 note=52 velocity=0 time=0.19480524999999999>,\n",
       " <message note_on channel=0 note=54 velocity=100 time=0>,\n",
       " <message note_on channel=0 note=54 velocity=0 time=0.19480524999999999>,\n",
       " <message note_on channel=0 note=50 velocity=100 time=0>,\n",
       " <message note_on channel=0 note=50 velocity=0 time=0.19480524999999999>,\n",
       " <message note_on channel=0 note=54 velocity=100 time=0>,\n",
       " <message note_on channel=0 note=54 velocity=0 time=0.19480524999999999>,\n",
       " <message note_on channel=0 note=55 velocity=100 time=0>,\n",
       " <message note_on channel=0 note=55 velocity=0 time=0.19480524999999999>,\n",
       " <message note_on channel=0 note=57 velocity=100 time=0>,\n",
       " <message note_on channel=0 note=57 velocity=0 time=0.19480524999999999>,\n",
       " <message note_on channel=0 note=59 velocity=100 time=0>,\n",
       " <message note_on channel=0 note=59 velocity=0 time=0.19480524999999999>,\n",
       " <message note_on channel=0 note=60 velocity=100 time=0>,\n",
       " <message note_on channel=0 note=60 velocity=0 time=0.19480524999999999>,\n",
       " <message note_on channel=0 note=57 velocity=100 time=0>,\n",
       " <message note_on channel=0 note=57 velocity=0 time=0.19480524999999999>,\n",
       " <message note_on channel=0 note=59 velocity=100 time=0>,\n",
       " <message note_on channel=0 note=59 velocity=0 time=0.19480524999999999>,\n",
       " <message note_on channel=0 note=50 velocity=100 time=0>,\n",
       " <message note_on channel=0 note=50 velocity=0 time=0.19480524999999999>,\n",
       " <message note_on channel=0 note=43 velocity=100 time=0>,\n",
       " <message note_on channel=0 note=43 velocity=0 time=0.19480524999999999>,\n",
       " <message note_on channel=0 note=50 velocity=100 time=0>,\n",
       " <message note_on channel=0 note=50 velocity=0 time=0.19480524999999999>,\n",
       " <message note_on channel=0 note=59 velocity=100 time=0>,\n",
       " <message note_on channel=0 note=59 velocity=0 time=0.19480524999999999>,\n",
       " <message note_on channel=0 note=55 velocity=100 time=0>,\n",
       " <message note_on channel=0 note=55 velocity=0 time=0.19480524999999999>,\n",
       " <message note_on channel=0 note=57 velocity=100 time=0>,\n",
       " <message note_on channel=0 note=57 velocity=0 time=0.19480524999999999>,\n",
       " <message note_on channel=0 note=54 velocity=100 time=0>,\n",
       " <message note_on channel=0 note=54 velocity=0 time=0.19480524999999999>,\n",
       " <message note_on channel=0 note=55 velocity=100 time=0>,\n",
       " <message note_on channel=0 note=55 velocity=0 time=0.19480524999999999>,\n",
       " <message note_on channel=0 note=52 velocity=100 time=0>,\n",
       " <message note_on channel=0 note=52 velocity=0 time=0.19480524999999999>,\n",
       " <message note_on channel=0 note=55 velocity=100 time=0>,\n",
       " <message note_on channel=0 note=55 velocity=0 time=0.19480524999999999>,\n",
       " <message note_on channel=0 note=57 velocity=100 time=0>,\n",
       " <message note_on channel=0 note=57 velocity=0 time=0.19480524999999999>,\n",
       " <message note_on channel=0 note=59 velocity=100 time=0>,\n",
       " <message note_on channel=0 note=59 velocity=0 time=0.19480524999999999>,\n",
       " <message note_on channel=0 note=61 velocity=100 time=0>,\n",
       " <message note_on channel=0 note=61 velocity=0 time=0.19480524999999999>,\n",
       " <message note_on channel=0 note=62 velocity=100 time=0>,\n",
       " <message note_on channel=0 note=62 velocity=0 time=0.19480524999999999>,\n",
       " <message note_on channel=0 note=59 velocity=100 time=0>,\n",
       " <message note_on channel=0 note=59 velocity=0 time=0.19480524999999999>,\n",
       " <message note_on channel=0 note=61 velocity=100 time=0>,\n",
       " <message note_on channel=0 note=61 velocity=0 time=0.19480524999999999>,\n",
       " <message note_on channel=0 note=52 velocity=100 time=0>,\n",
       " <message note_on channel=0 note=52 velocity=0 time=0.19480524999999999>,\n",
       " <message note_on channel=0 note=43 velocity=100 time=0>,\n",
       " <message note_on channel=0 note=43 velocity=0 time=0.19480524999999999>,\n",
       " <message note_on channel=0 note=52 velocity=100 time=0>,\n",
       " <message note_on channel=0 note=52 velocity=0 time=0.19480524999999999>,\n",
       " <message note_on channel=0 note=61 velocity=100 time=0>,\n",
       " <message note_on channel=0 note=61 velocity=0 time=0.19480524999999999>,\n",
       " <message note_on channel=0 note=57 velocity=100 time=0>,\n",
       " <message note_on channel=0 note=57 velocity=0 time=0.19480524999999999>,\n",
       " <message note_on channel=0 note=59 velocity=100 time=0>,\n",
       " <message note_on channel=0 note=59 velocity=0 time=0.19480524999999999>,\n",
       " <message note_on channel=0 note=62 velocity=100 time=0>,\n",
       " <message note_on channel=0 note=62 velocity=0 time=0.19480524999999999>,\n",
       " <message note_on channel=0 note=61 velocity=100 time=0>,\n",
       " <message note_on channel=0 note=61 velocity=0 time=0.19480524999999999>,\n",
       " <message note_on channel=0 note=57 velocity=100 time=0>,\n",
       " <message note_on channel=0 note=57 velocity=0 time=0.19480524999999999>,\n",
       " <message note_on channel=0 note=62 velocity=100 time=0>,\n",
       " <message note_on channel=0 note=62 velocity=0 time=0.19480524999999999>,\n",
       " <message note_on channel=0 note=59 velocity=100 time=0>,\n",
       " <message note_on channel=0 note=59 velocity=0 time=0.19480524999999999>,\n",
       " <message note_on channel=0 note=61 velocity=100 time=0>,\n",
       " <message note_on channel=0 note=61 velocity=0 time=0.19480524999999999>,\n",
       " <message note_on channel=0 note=57 velocity=100 time=0>,\n",
       " <message note_on channel=0 note=57 velocity=0 time=0.19480524999999999>,\n",
       " <message note_on channel=0 note=64 velocity=100 time=0>,\n",
       " <message note_on channel=0 note=64 velocity=0 time=0.19480524999999999>,\n",
       " <message note_on channel=0 note=55 velocity=100 time=0>,\n",
       " <message note_on channel=0 note=55 velocity=0 time=0.19480524999999999>,\n",
       " <message pitchwheel channel=0 pitch=4096 time=0>,\n",
       " <message note_on channel=0 note=54 velocity=100 time=0>,\n",
       " <message pitchwheel channel=0 pitch=0 time=0.06493508333333332>,\n",
       " <message pitchwheel channel=0 pitch=4096 time=0.06493508333333332>,\n",
       " <message pitchwheel channel=0 pitch=0 time=0.06493508333333332>,\n",
       " <message note_on channel=0 note=54 velocity=0 time=0.38961049999999997>,\n",
       " <message note_on channel=0 note=62 velocity=100 time=0>,\n",
       " <message note_on channel=0 note=62 velocity=0 time=0.19480524999999999>,\n",
       " <message note_on channel=0 note=57 velocity=100 time=0>,\n",
       " <message note_on channel=0 note=57 velocity=0 time=0.19480524999999999>,\n",
       " <message note_on channel=0 note=55 velocity=100 time=0>,\n",
       " <message note_on channel=0 note=55 velocity=0 time=0.19480524999999999>,\n",
       " <message note_on channel=0 note=54 velocity=100 time=0>,\n",
       " <message note_on channel=0 note=54 velocity=0 time=0.19480524999999999>,\n",
       " <message note_on channel=0 note=52 velocity=100 time=0>,\n",
       " <message note_on channel=0 note=52 velocity=0 time=0.19480524999999999>,\n",
       " <message note_on channel=0 note=50 velocity=100 time=0>,\n",
       " <message note_on channel=0 note=50 velocity=0 time=0.19480524999999999>,\n",
       " <message note_on channel=0 note=57 velocity=100 time=0>,\n",
       " <message note_on channel=0 note=57 velocity=0 time=0.19480524999999999>,\n",
       " <message note_on channel=0 note=55 velocity=100 time=0>,\n",
       " <message note_on channel=0 note=55 velocity=0 time=0.19480524999999999>,\n",
       " <message note_on channel=0 note=52 velocity=100 time=0>,\n",
       " <message note_on channel=0 note=52 velocity=0 time=0.19480524999999999>,\n",
       " <message note_on channel=0 note=54 velocity=100 time=0>,\n",
       " <message note_on channel=0 note=54 velocity=0 time=0.19480524999999999>,\n",
       " <message note_on channel=0 note=50 velocity=100 time=0>,\n",
       " <message note_on channel=0 note=50 velocity=0 time=0.19480524999999999>,\n",
       " <message note_on channel=0 note=57 velocity=100 time=0>,\n",
       " <message note_on channel=0 note=57 velocity=0 time=0.19480524999999999>,\n",
       " <message note_on channel=0 note=48 velocity=100 time=0>,\n",
       " <message note_on channel=0 note=48 velocity=0 time=0.19480524999999999>,\n",
       " <message pitchwheel channel=0 pitch=4096 time=0>,\n",
       " <message note_on channel=0 note=47 velocity=100 time=0>,\n",
       " <message pitchwheel channel=0 pitch=0 time=0.07142859166666665>,\n",
       " <message pitchwheel channel=0 pitch=4096 time=0.058441574999999996>,\n",
       " <message pitchwheel channel=0 pitch=0 time=0.06493508333333332>,\n",
       " <message note_on channel=0 note=47 velocity=0 time=0.38961049999999997>,\n",
       " <message note_on channel=0 note=55 velocity=100 time=0>,\n",
       " <message note_on channel=0 note=55 velocity=0 time=0.19480524999999999>,\n",
       " <message note_on channel=0 note=50 velocity=100 time=0>,\n",
       " <message note_on channel=0 note=50 velocity=0 time=0.19480524999999999>,\n",
       " <message note_on channel=0 note=48 velocity=100 time=0>,\n",
       " <message note_on channel=0 note=48 velocity=0 time=0.19480524999999999>,\n",
       " <message note_on channel=0 note=47 velocity=100 time=0>,\n",
       " <message note_on channel=0 note=47 velocity=0 time=0.19480524999999999>,\n",
       " <message note_on channel=0 note=45 velocity=100 time=0>,\n",
       " <message note_on channel=0 note=45 velocity=0 time=0.19480524999999999>,\n",
       " <message note_on channel=0 note=43 velocity=100 time=0>,\n",
       " <message note_on channel=0 note=43 velocity=0 time=0.19480524999999999>,\n",
       " <message note_on channel=0 note=50 velocity=100 time=0>,\n",
       " <message note_on channel=0 note=50 velocity=0 time=0.19480524999999999>,\n",
       " <message note_on channel=0 note=48 velocity=100 time=0>,\n",
       " <message note_on channel=0 note=48 velocity=0 time=0.19480524999999999>,\n",
       " <message note_on channel=0 note=45 velocity=100 time=0>,\n",
       " <message note_on channel=0 note=45 velocity=0 time=0.19480524999999999>,\n",
       " <message note_on channel=0 note=47 velocity=100 time=0>,\n",
       " <message note_on channel=0 note=47 velocity=0 time=0.19480524999999999>,\n",
       " <message note_on channel=0 note=43 velocity=100 time=0>,\n",
       " <message note_on channel=0 note=43 velocity=0 time=0.19480524999999999>,\n",
       " <message note_on channel=0 note=50 velocity=100 time=0>,\n",
       " <message note_on channel=0 note=50 velocity=0 time=0.19480524999999999>,\n",
       " <message note_on channel=0 note=42 velocity=100 time=0>,\n",
       " <message note_on channel=0 note=42 velocity=0 time=0.19480524999999999>,\n",
       " <message note_on channel=0 note=40 velocity=100 time=0>,\n",
       " <message note_on channel=0 note=40 velocity=0 time=0.19480524999999999>,\n",
       " <message note_on channel=0 note=43 velocity=100 time=0>,\n",
       " <message note_on channel=0 note=43 velocity=0 time=0.19480524999999999>,\n",
       " <message note_on channel=0 note=45 velocity=100 time=0>,\n",
       " <message note_on channel=0 note=45 velocity=0 time=0.19480524999999999>,\n",
       " <message note_on channel=0 note=47 velocity=100 time=0>,\n",
       " <message note_on channel=0 note=47 velocity=0 time=0.19480524999999999>,\n",
       " <message note_on channel=0 note=49 velocity=100 time=0>,\n",
       " <message note_on channel=0 note=49 velocity=0 time=0.19480524999999999>,\n",
       " <message note_on channel=0 note=50 velocity=100 time=0>,\n",
       " <message note_on channel=0 note=50 velocity=0 time=0.19480524999999999>,\n",
       " <message note_on channel=0 note=52 velocity=100 time=0>,\n",
       " <message note_on channel=0 note=52 velocity=0 time=0.19480524999999999>,\n",
       " <message note_on channel=0 note=54 velocity=100 time=0>,\n",
       " <message note_on channel=0 note=54 velocity=0 time=0.19480524999999999>,\n",
       " <message note_on channel=0 note=55 velocity=100 time=0>,\n",
       " <message note_on channel=0 note=55 velocity=0 time=0.19480524999999999>,\n",
       " <message note_on channel=0 note=57 velocity=100 time=0>,\n",
       " <message note_on channel=0 note=57 velocity=0 time=0.19480524999999999>,\n",
       " <message note_on channel=0 note=61 velocity=100 time=0>,\n",
       " <message note_on channel=0 note=61 velocity=0 time=0.19480524999999999>,\n",
       " <message note_on channel=0 note=62 velocity=100 time=0>,\n",
       " <message note_on channel=0 note=62 velocity=0 time=0.19480524999999999>,\n",
       " <message note_on channel=0 note=64 velocity=100 time=0>,\n",
       " <message note_on channel=0 note=64 velocity=0 time=0.19480524999999999>,\n",
       " <message note_on channel=0 note=57 velocity=100 time=0>,\n",
       " <message note_on channel=0 note=57 velocity=0 time=0.19480524999999999>,\n",
       " <message note_on channel=0 note=67 velocity=100 time=0>,\n",
       " <message note_on channel=0 note=67 velocity=0 time=0.38961049999999997>,\n",
       " <message note_on channel=0 note=50 velocity=100 time=0>,\n",
       " <message note_on channel=0 note=50 velocity=0 time=0.19480524999999999>,\n",
       " <message note_on channel=0 note=67 velocity=100 time=0>,\n",
       " <message note_on channel=0 note=67 velocity=0 time=0.19480524999999999>,\n",
       " <message note_on channel=0 note=66 velocity=100 time=0>,\n",
       " <message note_on channel=0 note=66 velocity=0 time=0.19480524999999999>,\n",
       " <message note_on channel=0 note=64 velocity=100 time=0>,\n",
       " <message note_on channel=0 note=64 velocity=0 time=0.19480524999999999>,\n",
       " <message note_on channel=0 note=66 velocity=100 time=0>,\n",
       " <message note_on channel=0 note=66 velocity=0 time=0.19480524999999999>,\n",
       " <message note_on channel=0 note=62 velocity=100 time=0>,\n",
       " <message note_on channel=0 note=62 velocity=0 time=0.19480524999999999>,\n",
       " <message note_on channel=0 note=57 velocity=100 time=0>,\n",
       " <message note_on channel=0 note=57 velocity=0 time=0.19480524999999999>,\n",
       " <message note_on channel=0 note=62 velocity=100 time=0>,\n",
       " <message note_on channel=0 note=62 velocity=0 time=0.19480524999999999>,\n",
       " <message note_on channel=0 note=50 velocity=100 time=0>,\n",
       " <message note_on channel=0 note=50 velocity=0 time=0.19480524999999999>,\n",
       " <message note_on channel=0 note=54 velocity=100 time=0>,\n",
       " <message note_on channel=0 note=54 velocity=0 time=0.19480524999999999>,\n",
       " <message note_on channel=0 note=57 velocity=100 time=0>,\n",
       " <message note_on channel=0 note=57 velocity=0 time=0.19480524999999999>,\n",
       " <message note_on channel=0 note=60 velocity=100 time=0>,\n",
       " <message note_on channel=0 note=60 velocity=0 time=0.19480524999999999>,\n",
       " <message pitchwheel channel=0 pitch=4096 time=0>,\n",
       " <message note_on channel=0 note=59 velocity=100 time=0>,\n",
       " <message pitchwheel channel=0 pitch=0 time=0.06493508333333332>,\n",
       " <message pitchwheel channel=0 pitch=4096 time=0.06493508333333332>,\n",
       " <message pitchwheel channel=0 pitch=0 time=0.06493508333333332>,\n",
       " <message pitchwheel channel=0 pitch=4096 time=0.06493508333333332>,\n",
       " <message pitchwheel channel=0 pitch=0 time=0.06493508333333332>,\n",
       " <message pitchwheel channel=0 pitch=4096 time=0.06493508333333332>,\n",
       " <message pitchwheel channel=0 pitch=0 time=0.06493508333333332>,\n",
       " <message note_on channel=0 note=59 velocity=0 time=0.12987016666666665>,\n",
       " <message note_on channel=0 note=57 velocity=100 time=0>,\n",
       " <message note_on channel=0 note=57 velocity=0 time=0.19480524999999999>,\n",
       " <message note_on channel=0 note=59 velocity=100 time=0>,\n",
       " <message note_on channel=1 note=50 velocity=100 time=0>,\n",
       " <message note_on channel=2 note=43 velocity=100 time=0>,\n",
       " <message note_on channel=0 note=59 velocity=0 time=0.5844157499999999>,\n",
       " <message note_on channel=0 note=57 velocity=100 time=0>,\n",
       " <message note_on channel=1 note=50 velocity=0 time=0>,\n",
       " <message note_on channel=2 note=43 velocity=0 time=0>,\n",
       " <message note_on channel=0 note=57 velocity=0 time=0.19480524999999999>,\n",
       " <message note_on channel=0 note=55 velocity=100 time=0>,\n",
       " <message note_on channel=0 note=55 velocity=0 time=0.19480524999999999>,\n",
       " <message note_on channel=0 note=54 velocity=100 time=0>,\n",
       " <message note_on channel=0 note=54 velocity=0 time=0.19480524999999999>,\n",
       " <message note_on channel=0 note=52 velocity=100 time=0>,\n",
       " <message note_on channel=0 note=52 velocity=0 time=0.19480524999999999>,\n",
       " <message note_on channel=0 note=62 velocity=100 time=0>,\n",
       " <message note_on channel=0 note=62 velocity=0 time=0.19480524999999999>,\n",
       " <message note_on channel=0 note=61 velocity=100 time=0>,\n",
       " <message note_on channel=0 note=61 velocity=0 time=0.19480524999999999>,\n",
       " <message note_on channel=0 note=64 velocity=100 time=0>,\n",
       " <message note_on channel=0 note=64 velocity=0 time=0.19480524999999999>,\n",
       " <message note_on channel=0 note=57 velocity=100 time=0>,\n",
       " <message note_on channel=0 note=57 velocity=0 time=0.19480524999999999>,\n",
       " <message note_on channel=0 note=55 velocity=100 time=0>,\n",
       " <message note_on channel=0 note=55 velocity=0 time=0.19480524999999999>,\n",
       " <message note_on channel=0 note=54 velocity=100 time=0>,\n",
       " <message note_on channel=0 note=54 velocity=0 time=0.19480524999999999>,\n",
       " <message note_on channel=0 note=50 velocity=100 time=0>,\n",
       " <message note_on channel=0 note=50 velocity=0 time=0.19480524999999999>,\n",
       " <message note_on channel=0 note=45 velocity=100 time=0>,\n",
       " <message note_on channel=0 note=45 velocity=0 time=0.19480524999999999>,\n",
       " <message note_on channel=0 note=49 velocity=100 time=0>,\n",
       " <message note_on channel=0 note=49 velocity=0 time=0.19480524999999999>,\n",
       " <message note_on channel=0 note=38 velocity=100 time=0>,\n",
       " <message note_on channel=0 note=38 velocity=0 time=0.5844157499999999>,\n",
       " <message note_on channel=0 note=45 velocity=100 time=0>,\n",
       " <message note_on channel=0 note=45 velocity=0 time=0.19480524999999999>,\n",
       " <message note_on channel=0 note=50 velocity=100 time=0>,\n",
       " <message note_on channel=0 note=50 velocity=0 time=0.19480524999999999>,\n",
       " <message note_on channel=0 note=54 velocity=100 time=0>,\n",
       " <message note_on channel=0 note=54 velocity=0 time=0.19480524999999999>,\n",
       " <message note_on channel=0 note=57 velocity=100 time=0>,\n",
       " <message note_on channel=0 note=57 velocity=0 time=0.19480524999999999>,\n",
       " <message note_on channel=0 note=61 velocity=100 time=0>,\n",
       " <message note_on channel=0 note=61 velocity=0 time=0.19480524999999999>,\n",
       " <message note_on channel=0 note=62 velocity=100 time=0>,\n",
       " <message note_on channel=0 note=62 velocity=0 time=0.19480524999999999>,\n",
       " <message note_on channel=0 note=57 velocity=100 time=0>,\n",
       " <message note_on channel=0 note=57 velocity=0 time=0.19480524999999999>,\n",
       " <message note_on channel=0 note=54 velocity=100 time=0>,\n",
       " <message note_on channel=0 note=54 velocity=0 time=0.19480524999999999>,\n",
       " <message note_on channel=0 note=50 velocity=100 time=0>,\n",
       " <message note_on channel=0 note=50 velocity=0 time=0.19480524999999999>,\n",
       " <message note_on channel=0 note=38 velocity=100 time=0>,\n",
       " <message note_on channel=0 note=38 velocity=0 time=0.5844157499999999>,\n",
       " <message note_on channel=0 note=59 velocity=100 time=0>,\n",
       " <meta message marker text=\"A'\" time=0.19480524999999999>,\n",
       " <message note_on channel=0 note=59 velocity=0 time=0>,\n",
       " <message note_on channel=0 note=59 velocity=100 time=0>,\n",
       " <message note_on channel=1 note=50 velocity=100 time=0>,\n",
       " <message note_on channel=2 note=43 velocity=100 time=0>,\n",
       " <message note_on channel=1 note=50 velocity=0 time=0.7792209999999999>,\n",
       " <message note_on channel=2 note=43 velocity=0 time=0>,\n",
       " <message note_on channel=0 note=59 velocity=0 time=0.19480524999999999>,\n",
       " <message note_on channel=0 note=57 velocity=100 time=0>,\n",
       " <message note_on channel=0 note=57 velocity=0 time=0.19480524999999999>,\n",
       " <message note_on channel=0 note=55 velocity=100 time=0>,\n",
       " <message note_on channel=0 note=55 velocity=0 time=0.19480524999999999>,\n",
       " <message note_on channel=0 note=54 velocity=100 time=0>,\n",
       " <message note_on channel=0 note=54 velocity=0 time=0.19480524999999999>,\n",
       " <message note_on channel=0 note=55 velocity=100 time=0>,\n",
       " <message note_on channel=0 note=55 velocity=0 time=0.19480524999999999>,\n",
       " <message note_on channel=0 note=50 velocity=100 time=0>,\n",
       " <message note_on channel=0 note=50 velocity=0 time=0.19480524999999999>,\n",
       " <message note_on channel=0 note=52 velocity=100 time=0>,\n",
       " <message note_on channel=0 note=52 velocity=0 time=0.19480524999999999>,\n",
       " <message note_on channel=0 note=54 velocity=100 time=0>,\n",
       " <message note_on channel=0 note=54 velocity=0 time=0.19480524999999999>,\n",
       " <message note_on channel=0 note=55 velocity=100 time=0>,\n",
       " <message note_on channel=0 note=55 velocity=0 time=0.19480524999999999>,\n",
       " <message note_on channel=0 note=57 velocity=100 time=0>,\n",
       " <message note_on channel=0 note=57 velocity=0 time=0.19480524999999999>,\n",
       " <message note_on channel=0 note=59 velocity=100 time=0>,\n",
       " <message note_on channel=0 note=59 velocity=0 time=0.19480524999999999>,\n",
       " <message note_on channel=0 note=60 velocity=100 time=0>,\n",
       " <message note_on channel=0 note=60 velocity=0 time=0.19480524999999999>,\n",
       " <message note_on channel=0 note=62 velocity=100 time=0>,\n",
       " <message note_on channel=0 note=62 velocity=0 time=0.19480524999999999>,\n",
       " <message note_on channel=0 note=59 velocity=100 time=0>,\n",
       " <message note_on channel=0 note=59 velocity=0 time=0.19480524999999999>,\n",
       " <message note_on channel=0 note=55 velocity=100 time=0>,\n",
       " <message note_on channel=0 note=55 velocity=0 time=0.19480524999999999>,\n",
       " <message note_on channel=0 note=54 velocity=100 time=0>,\n",
       " <message note_on channel=0 note=54 velocity=0 time=0.19480524999999999>,\n",
       " <message note_on channel=0 note=55 velocity=100 time=0>,\n",
       " <message note_on channel=0 note=55 velocity=0 time=0.19480524999999999>,\n",
       " <message note_on channel=0 note=52 velocity=100 time=0>,\n",
       " <message note_on channel=0 note=52 velocity=0 time=0.19480524999999999>,\n",
       " <message note_on channel=0 note=50 velocity=100 time=0>,\n",
       " <message note_on channel=0 note=50 velocity=0 time=0.19480524999999999>,\n",
       " <message note_on channel=0 note=48 velocity=100 time=0>,\n",
       " <message note_on channel=0 note=48 velocity=0 time=0.19480524999999999>,\n",
       " <message note_on channel=0 note=47 velocity=100 time=0>,\n",
       " <message note_on channel=0 note=47 velocity=0 time=0.19480524999999999>,\n",
       " <message note_on channel=0 note=48 velocity=100 time=0>,\n",
       " <message note_on channel=0 note=48 velocity=0 time=0.19480524999999999>,\n",
       " <message note_on channel=0 note=50 velocity=100 time=0>,\n",
       " <message note_on channel=0 note=50 velocity=0 time=0.19480524999999999>,\n",
       " <message note_on channel=0 note=52 velocity=100 time=0>,\n",
       " <message note_on channel=0 note=52 velocity=0 time=0.19480524999999999>,\n",
       " <message note_on channel=0 note=54 velocity=100 time=0>,\n",
       " <message note_on channel=0 note=54 velocity=0 time=0.19480524999999999>,\n",
       " <message note_on channel=0 note=55 velocity=100 time=0>,\n",
       " <message note_on channel=0 note=55 velocity=0 time=0.19480524999999999>,\n",
       " <message note_on channel=0 note=57 velocity=100 time=0>,\n",
       " <message note_on channel=0 note=57 velocity=0 time=0.19480524999999999>,\n",
       " <message note_on channel=0 note=59 velocity=100 time=0>,\n",
       " <message note_on channel=0 note=59 velocity=0 time=0.19480524999999999>,\n",
       " <message note_on channel=0 note=60 velocity=100 time=0>,\n",
       " <message note_on channel=0 note=60 velocity=0 time=0.19480524999999999>,\n",
       " <message note_on channel=0 note=57 velocity=100 time=0>,\n",
       " <message note_on channel=0 note=57 velocity=0 time=0.19480524999999999>,\n",
       " <message note_on channel=0 note=55 velocity=100 time=0>,\n",
       " <message note_on channel=0 note=55 velocity=0 time=0.19480524999999999>,\n",
       " <message note_on channel=0 note=54 velocity=100 time=0>,\n",
       " <message note_on channel=0 note=54 velocity=0 time=0.19480524999999999>,\n",
       " <message note_on channel=0 note=55 velocity=100 time=0>,\n",
       " <message note_on channel=0 note=55 velocity=0 time=0.19480524999999999>,\n",
       " <message note_on channel=0 note=52 velocity=100 time=0>,\n",
       " <message note_on channel=0 note=52 velocity=0 time=0.19480524999999999>,\n",
       " <message note_on channel=0 note=54 velocity=100 time=0>,\n",
       " <message note_on channel=0 note=54 velocity=0 time=0.19480524999999999>,\n",
       " <message note_on channel=0 note=55 velocity=100 time=0>,\n",
       " <message note_on channel=0 note=55 velocity=0 time=0.19480524999999999>,\n",
       " <message note_on channel=0 note=45 velocity=100 time=0>,\n",
       " <message note_on channel=0 note=45 velocity=0 time=0.19480524999999999>,\n",
       " <message note_on channel=0 note=50 velocity=100 time=0>,\n",
       " <message note_on channel=0 note=50 velocity=0 time=0.19480524999999999>,\n",
       " <message note_on channel=0 note=54 velocity=100 time=0>,\n",
       " <message note_on channel=0 note=54 velocity=0 time=0.19480524999999999>,\n",
       " <message note_on channel=0 note=55 velocity=100 time=0>,\n",
       " <message note_on channel=0 note=55 velocity=0 time=0.19480524999999999>,\n",
       " <message note_on channel=0 note=57 velocity=100 time=0>,\n",
       " <message note_on channel=0 note=57 velocity=0 time=0.19480524999999999>,\n",
       " <message note_on channel=0 note=59 velocity=100 time=0>,\n",
       " <message note_on channel=0 note=59 velocity=0 time=0.19480524999999999>,\n",
       " <message note_on channel=0 note=60 velocity=100 time=0>,\n",
       " <message note_on channel=0 note=60 velocity=0 time=0.19480524999999999>,\n",
       " <message note_on channel=0 note=57 velocity=100 time=0>,\n",
       " <message note_on channel=0 note=57 velocity=0 time=0.19480524999999999>,\n",
       " <message note_on channel=0 note=59 velocity=100 time=0>,\n",
       " <message note_on channel=0 note=59 velocity=0 time=0.19480524999999999>,\n",
       " <message note_on channel=0 note=55 velocity=100 time=0>,\n",
       " <message note_on channel=0 note=55 velocity=0 time=0.19480524999999999>,\n",
       " <message note_on channel=0 note=55 velocity=100 time=0>,\n",
       " <message note_on channel=0 note=55 velocity=0 time=0.19480524999999999>,\n",
       " <message note_on channel=0 note=50 velocity=100 time=0>,\n",
       " <message note_on channel=0 note=50 velocity=0 time=0.19480524999999999>,\n",
       " <message note_on channel=0 note=50 velocity=100 time=0>,\n",
       " <message note_on channel=0 note=50 velocity=0 time=0.19480524999999999>,\n",
       " <message note_on channel=0 note=47 velocity=100 time=0>,\n",
       " <message note_on channel=0 note=47 velocity=0 time=0.19480524999999999>,\n",
       " <message note_on channel=0 note=47 velocity=100 time=0>,\n",
       " <message note_on channel=0 note=47 velocity=0 time=0.19480524999999999>,\n",
       " <message note_on channel=0 note=43 velocity=100 time=0>,\n",
       " <message note_on channel=0 note=43 velocity=0 time=0.19480524999999999>,\n",
       " <message note_on channel=0 note=43 velocity=100 time=0>,\n",
       " <message note_on channel=0 note=43 velocity=0 time=0.5844157499999999>,\n",
       " <message note_on channel=0 note=59 velocity=100 time=0>,\n",
       " <message note_on channel=0 note=59 velocity=0 time=0.19480524999999999>,\n",
       " <message note_on channel=0 note=60 velocity=100 time=0>,\n",
       " <message note_on channel=0 note=60 velocity=0 time=0.19480524999999999>,\n",
       " <message note_on channel=0 note=59 velocity=100 time=0>,\n",
       " <message note_on channel=0 note=59 velocity=0 time=0.19480524999999999>,\n",
       " <message note_on channel=0 note=57 velocity=100 time=0>,\n",
       " <message note_on channel=0 note=57 velocity=0 time=0.19480524999999999>,\n",
       " <message note_on channel=0 note=55 velocity=100 time=0>,\n",
       " <message note_on channel=0 note=55 velocity=0 time=0.19480524999999999>,\n",
       " <message note_on channel=0 note=57 velocity=100 time=0>,\n",
       " <message note_on channel=0 note=57 velocity=0 time=0.19480524999999999>,\n",
       " <message note_on channel=0 note=59 velocity=100 time=0>,\n",
       " <message note_on channel=0 note=59 velocity=0 time=0.19480524999999999>,\n",
       " <message note_on channel=0 note=60 velocity=100 time=0>,\n",
       " <message note_on channel=0 note=60 velocity=0 time=0.19480524999999999>,\n",
       " <message note_on channel=0 note=57 velocity=100 time=0>,\n",
       " <message note_on channel=0 note=57 velocity=0 time=0.19480524999999999>,\n",
       " <message note_on channel=0 note=55 velocity=100 time=0>,\n",
       " <message note_on channel=0 note=55 velocity=0 time=0.19480524999999999>,\n",
       " <message note_on channel=0 note=54 velocity=100 time=0>,\n",
       " <message note_on channel=0 note=54 velocity=0 time=0.19480524999999999>,\n",
       " <message note_on channel=0 note=55 velocity=100 time=0>,\n",
       " <message note_on channel=0 note=55 velocity=0 time=0.19480524999999999>,\n",
       " <message note_on channel=0 note=57 velocity=100 time=0>,\n",
       " <message note_on channel=0 note=57 velocity=0 time=0.19480524999999999>,\n",
       " <message pitchwheel channel=0 pitch=4096 time=0>,\n",
       " <message note_on channel=0 note=51 velocity=100 time=0>,\n",
       " <message pitchwheel channel=0 pitch=0 time=0.06493508333333332>,\n",
       " <message pitchwheel channel=0 pitch=4096 time=0.06493508333333332>,\n",
       " <message pitchwheel channel=0 pitch=0 time=0.06493508333333332>,\n",
       " <message note_on channel=0 note=51 velocity=0 time=0.38961049999999997>,\n",
       " <message note_on channel=0 note=60 velocity=100 time=0>,\n",
       " <message note_on channel=0 note=60 velocity=0 time=0.19480524999999999>,\n",
       " <message note_on channel=0 note=59 velocity=100 time=0>,\n",
       " <message note_on channel=0 note=59 velocity=0 time=0.19480524999999999>,\n",
       " <message note_on channel=0 note=57 velocity=100 time=0>,\n",
       " <message note_on channel=0 note=57 velocity=0 time=0.19480524999999999>,\n",
       " <message note_on channel=0 note=55 velocity=100 time=0>,\n",
       " <message note_on channel=0 note=55 velocity=0 time=0.19480524999999999>,\n",
       " <message note_on channel=0 note=54 velocity=100 time=0>,\n",
       " <message note_on channel=0 note=54 velocity=0 time=0.19480524999999999>,\n",
       " <message note_on channel=0 note=55 velocity=100 time=0>,\n",
       " <message note_on channel=0 note=55 velocity=0 time=0.19480524999999999>,\n",
       " <message note_on channel=0 note=52 velocity=100 time=0>,\n",
       " <message note_on channel=0 note=52 velocity=0 time=0.19480524999999999>,\n",
       " <message note_on channel=0 note=52 velocity=100 time=0>,\n",
       " <message note_on channel=0 note=52 velocity=0 time=0.19480524999999999>,\n",
       " <message note_on channel=0 note=47 velocity=100 time=0>,\n",
       " <message note_on channel=0 note=47 velocity=0 time=0.19480524999999999>,\n",
       " <message note_on channel=0 note=47 velocity=100 time=0>,\n",
       " <message note_on channel=0 note=47 velocity=0 time=0.19480524999999999>,\n",
       " <message note_on channel=0 note=43 velocity=100 time=0>,\n",
       " <message note_on channel=0 note=43 velocity=0 time=0.19480524999999999>,\n",
       " <message note_on channel=0 note=43 velocity=100 time=0>,\n",
       " <message note_on channel=0 note=43 velocity=0 time=0.19480524999999999>,\n",
       " <message note_on channel=0 note=40 velocity=100 time=0>,\n",
       " <message note_on channel=0 note=40 velocity=0 time=0.19480524999999999>,\n",
       " <message note_on channel=0 note=40 velocity=100 time=0>,\n",
       " <message note_on channel=0 note=40 velocity=0 time=0.5844157499999999>,\n",
       " <message note_on channel=0 note=47 velocity=100 time=0>,\n",
       " <message note_on channel=0 note=47 velocity=0 time=0.19480524999999999>,\n",
       " <message note_on channel=0 note=52 velocity=100 time=0>,\n",
       " <message note_on channel=0 note=52 velocity=0 time=0.19480524999999999>,\n",
       " <message note_on channel=0 note=55 velocity=100 time=0>,\n",
       " <message note_on channel=0 note=55 velocity=0 time=0.19480524999999999>,\n",
       " <message note_on channel=0 note=54 velocity=100 time=0>,\n",
       " <message note_on channel=0 note=54 velocity=0 time=0.19480524999999999>,\n",
       " <message note_on channel=0 note=57 velocity=100 time=0>,\n",
       " <message note_on channel=0 note=57 velocity=0 time=0.19480524999999999>,\n",
       " <message note_on channel=0 note=55 velocity=100 time=0>,\n",
       " <message note_on channel=0 note=55 velocity=0 time=0.19480524999999999>,\n",
       " <message note_on channel=0 note=54 velocity=100 time=0>,\n",
       " <message note_on channel=0 note=54 velocity=0 time=0.19480524999999999>,\n",
       " <message note_on channel=0 note=52 velocity=100 time=0>,\n",
       " <message note_on channel=0 note=52 velocity=0 time=0.19480524999999999>,\n",
       " <message note_on channel=0 note=54 velocity=100 time=0>,\n",
       " <message note_on channel=0 note=54 velocity=0 time=0.19480524999999999>,\n",
       " <message note_on channel=0 note=55 velocity=100 time=0>,\n",
       " <message note_on channel=0 note=55 velocity=0 time=0.19480524999999999>,\n",
       " <message note_on channel=0 note=61 velocity=100 time=0>,\n",
       " <message note_on channel=0 note=61 velocity=0 time=0.19480524999999999>,\n",
       " <message note_on channel=0 note=55 velocity=100 time=0>,\n",
       " <message note_on channel=0 note=55 velocity=0 time=0.19480524999999999>,\n",
       " <message note_on channel=0 note=54 velocity=100 time=0>,\n",
       " <message note_on channel=0 note=54 velocity=0 time=0.19480524999999999>,\n",
       " <message note_on channel=0 note=55 velocity=100 time=0>,\n",
       " <message note_on channel=0 note=55 velocity=0 time=0.19480524999999999>,\n",
       " <message note_on channel=0 note=61 velocity=100 time=0>,\n",
       " <message note_on channel=0 note=61 velocity=0 time=0.19480524999999999>,\n",
       " <message note_on channel=0 note=52 velocity=100 time=0>,\n",
       " <message note_on channel=0 note=52 velocity=0 time=0.19480524999999999>,\n",
       " <message note_on channel=0 note=54 velocity=100 time=0>,\n",
       " <message note_on channel=0 note=54 velocity=0 time=0.19480524999999999>,\n",
       " <message note_on channel=0 note=55 velocity=100 time=0>,\n",
       " <message note_on channel=0 note=55 velocity=0 time=0.19480524999999999>,\n",
       " <message note_on channel=0 note=52 velocity=100 time=0>,\n",
       " <message note_on channel=0 note=52 velocity=0 time=0.19480524999999999>,\n",
       " <message note_on channel=0 note=45 velocity=100 time=0>,\n",
       " <message note_on channel=0 note=45 velocity=0 time=0.19480524999999999>,\n",
       " <message note_on channel=0 note=55 velocity=100 time=0>,\n",
       " <message note_on channel=0 note=55 velocity=0 time=0.19480524999999999>,\n",
       " <message pitchwheel channel=0 pitch=4096 time=0>,\n",
       " <message note_on channel=0 note=54 velocity=100 time=0>,\n",
       " <message pitchwheel channel=0 pitch=0 time=0.06493508333333332>,\n",
       " <message pitchwheel channel=0 pitch=4096 time=0.06493508333333332>,\n",
       " <message pitchwheel channel=0 pitch=0 time=0.06493508333333332>,\n",
       " <message note_on channel=0 note=54 velocity=0 time=0.19480524999999999>,\n",
       " <message note_on channel=0 note=50 velocity=100 time=0>,\n",
       " <message note_on channel=0 note=50 velocity=0 time=0.19480524999999999>,\n",
       " <message note_on channel=0 note=52 velocity=100 time=0>,\n",
       " <message note_on channel=0 note=52 velocity=0 time=0.19480524999999999>,\n",
       " <message note_on channel=0 note=54 velocity=100 time=0>,\n",
       " <message note_on channel=0 note=54 velocity=0 time=0.19480524999999999>,\n",
       " <message note_on channel=0 note=50 velocity=100 time=0>,\n",
       " <message note_on channel=0 note=50 velocity=0 time=0.19480524999999999>,\n",
       " <message note_on channel=0 note=55 velocity=100 time=0>,\n",
       " <message note_on channel=0 note=55 velocity=0 time=0.19480524999999999>,\n",
       " <message note_on channel=0 note=52 velocity=100 time=0>,\n",
       " <message note_on channel=0 note=52 velocity=0 time=0.19480524999999999>,\n",
       " <message note_on channel=0 note=54 velocity=100 time=0>,\n",
       " <message note_on channel=0 note=54 velocity=0 time=0.19480524999999999>,\n",
       " <message note_on channel=0 note=50 velocity=100 time=0>,\n",
       " <message note_on channel=0 note=50 velocity=0 time=0.19480524999999999>,\n",
       " <message note_on channel=0 note=54 velocity=100 time=0>,\n",
       " <message note_on channel=0 note=54 velocity=0 time=0.19480524999999999>,\n",
       " <message note_on channel=0 note=55 velocity=100 time=0>,\n",
       " <message note_on channel=0 note=55 velocity=0 time=0.19480524999999999>,\n",
       " <message note_on channel=0 note=57 velocity=100 time=0>,\n",
       " <message note_on channel=0 note=57 velocity=0 time=0.19480524999999999>,\n",
       " <message note_on channel=0 note=59 velocity=100 time=0>,\n",
       " <message note_on channel=0 note=59 velocity=0 time=0.19480524999999999>,\n",
       " <message note_on channel=0 note=60 velocity=100 time=0>,\n",
       " <message note_on channel=0 note=60 velocity=0 time=0.19480524999999999>,\n",
       " <message note_on channel=0 note=57 velocity=100 time=0>,\n",
       " <message note_on channel=0 note=57 velocity=0 time=0.19480524999999999>,\n",
       " <message note_on channel=0 note=59 velocity=100 time=0>,\n",
       " <message note_on channel=0 note=59 velocity=0 time=0.19480524999999999>,\n",
       " <message note_on channel=0 note=50 velocity=100 time=0>,\n",
       " <message note_on channel=0 note=50 velocity=0 time=0.19480524999999999>,\n",
       " <message note_on channel=0 note=43 velocity=100 time=0>,\n",
       " <message note_on channel=0 note=43 velocity=0 time=0.19480524999999999>,\n",
       " <message note_on channel=0 note=50 velocity=100 time=0>,\n",
       " <message note_on channel=0 note=50 velocity=0 time=0.19480524999999999>,\n",
       " <message note_on channel=0 note=59 velocity=100 time=0>,\n",
       " <message note_on channel=0 note=59 velocity=0 time=0.19480524999999999>,\n",
       " <message note_on channel=0 note=55 velocity=100 time=0>,\n",
       " <message note_on channel=0 note=55 velocity=0 time=0.19480524999999999>,\n",
       " <message note_on channel=0 note=57 velocity=100 time=0>,\n",
       " <message note_on channel=0 note=57 velocity=0 time=0.19480524999999999>,\n",
       " <message note_on channel=0 note=54 velocity=100 time=0>,\n",
       " <message note_on channel=0 note=54 velocity=0 time=0.19480524999999999>,\n",
       " <message note_on channel=0 note=55 velocity=100 time=0>,\n",
       " <message note_on channel=0 note=55 velocity=0 time=0.19480524999999999>,\n",
       " <message note_on channel=0 note=52 velocity=100 time=0>,\n",
       " <message note_on channel=0 note=52 velocity=0 time=0.19480524999999999>,\n",
       " <message note_on channel=0 note=55 velocity=100 time=0>,\n",
       " <message note_on channel=0 note=55 velocity=0 time=0.19480524999999999>,\n",
       " <message note_on channel=0 note=57 velocity=100 time=0>,\n",
       " <message note_on channel=0 note=57 velocity=0 time=0.19480524999999999>,\n",
       " <message note_on channel=0 note=59 velocity=100 time=0>,\n",
       " <message note_on channel=0 note=59 velocity=0 time=0.19480524999999999>,\n",
       " <message note_on channel=0 note=61 velocity=100 time=0>,\n",
       " <message note_on channel=0 note=61 velocity=0 time=0.19480524999999999>,\n",
       " <message note_on channel=0 note=62 velocity=100 time=0>,\n",
       " <message note_on channel=0 note=62 velocity=0 time=0.19480524999999999>,\n",
       " <message note_on channel=0 note=59 velocity=100 time=0>,\n",
       " <message note_on channel=0 note=59 velocity=0 time=0.19480524999999999>,\n",
       " <message note_on channel=0 note=61 velocity=100 time=0>,\n",
       " <message note_on channel=0 note=61 velocity=0 time=0.19480524999999999>,\n",
       " <message note_on channel=0 note=52 velocity=100 time=0>,\n",
       " <message note_on channel=0 note=52 velocity=0 time=0.19480524999999999>,\n",
       " <message note_on channel=0 note=43 velocity=100 time=0>,\n",
       " <message note_on channel=0 note=43 velocity=0 time=0.19480524999999999>,\n",
       " <message note_on channel=0 note=52 velocity=100 time=0>,\n",
       " <message note_on channel=0 note=52 velocity=0 time=0.19480524999999999>,\n",
       " <message note_on channel=0 note=61 velocity=100 time=0>,\n",
       " <message note_on channel=0 note=61 velocity=0 time=0.19480524999999999>,\n",
       " <message note_on channel=0 note=57 velocity=100 time=0>,\n",
       " <message note_on channel=0 note=57 velocity=0 time=0.19480524999999999>,\n",
       " <message note_on channel=0 note=59 velocity=100 time=0>,\n",
       " <message note_on channel=0 note=59 velocity=0 time=0.19480524999999999>,\n",
       " <message note_on channel=0 note=62 velocity=100 time=0>,\n",
       " <message note_on channel=0 note=62 velocity=0 time=0.19480524999999999>,\n",
       " <message note_on channel=0 note=61 velocity=100 time=0>,\n",
       " <message note_on channel=0 note=61 velocity=0 time=0.19480524999999999>,\n",
       " <message note_on channel=0 note=57 velocity=100 time=0>,\n",
       " <message note_on channel=0 note=57 velocity=0 time=0.19480524999999999>,\n",
       " <message note_on channel=0 note=62 velocity=100 time=0>,\n",
       " <message note_on channel=0 note=62 velocity=0 time=0.19480524999999999>,\n",
       " <message note_on channel=0 note=59 velocity=100 time=0>,\n",
       " <message note_on channel=0 note=59 velocity=0 time=0.19480524999999999>,\n",
       " <message note_on channel=0 note=61 velocity=100 time=0>,\n",
       " <message note_on channel=0 note=61 velocity=0 time=0.19480524999999999>,\n",
       " <message note_on channel=0 note=57 velocity=100 time=0>,\n",
       " <message note_on channel=0 note=57 velocity=0 time=0.19480524999999999>,\n",
       " <message note_on channel=0 note=64 velocity=100 time=0>,\n",
       " <message note_on channel=0 note=64 velocity=0 time=0.19480524999999999>,\n",
       " <message note_on channel=0 note=55 velocity=100 time=0>,\n",
       " <message note_on channel=0 note=55 velocity=0 time=0.19480524999999999>,\n",
       " <message pitchwheel channel=0 pitch=4096 time=0>,\n",
       " <message note_on channel=0 note=54 velocity=100 time=0>,\n",
       " <message pitchwheel channel=0 pitch=0 time=0.06493508333333332>,\n",
       " <message pitchwheel channel=0 pitch=4096 time=0.06493508333333332>,\n",
       " <message pitchwheel channel=0 pitch=0 time=0.06493508333333332>,\n",
       " <message note_on channel=0 note=54 velocity=0 time=0.38961049999999997>,\n",
       " <message note_on channel=0 note=62 velocity=100 time=0>,\n",
       " <message note_on channel=0 note=62 velocity=0 time=0.19480524999999999>,\n",
       " <message note_on channel=0 note=57 velocity=100 time=0>,\n",
       " <message note_on channel=0 note=57 velocity=0 time=0.19480524999999999>,\n",
       " <message note_on channel=0 note=55 velocity=100 time=0>,\n",
       " <message note_on channel=0 note=55 velocity=0 time=0.19480524999999999>,\n",
       " <message note_on channel=0 note=54 velocity=100 time=0>,\n",
       " <message note_on channel=0 note=54 velocity=0 time=0.19480524999999999>,\n",
       " <message note_on channel=0 note=52 velocity=100 time=0>,\n",
       " <message note_on channel=0 note=52 velocity=0 time=0.19480524999999999>,\n",
       " <message note_on channel=0 note=50 velocity=100 time=0>,\n",
       " <message note_on channel=0 note=50 velocity=0 time=0.19480524999999999>,\n",
       " <message note_on channel=0 note=57 velocity=100 time=0>,\n",
       " <message note_on channel=0 note=57 velocity=0 time=0.19480524999999999>,\n",
       " <message note_on channel=0 note=55 velocity=100 time=0>,\n",
       " <message note_on channel=0 note=55 velocity=0 time=0.19480524999999999>,\n",
       " <message note_on channel=0 note=52 velocity=100 time=0>,\n",
       " <message note_on channel=0 note=52 velocity=0 time=0.19480524999999999>,\n",
       " <message note_on channel=0 note=54 velocity=100 time=0>,\n",
       " <message note_on channel=0 note=54 velocity=0 time=0.19480524999999999>,\n",
       " <message note_on channel=0 note=50 velocity=100 time=0>,\n",
       " <message note_on channel=0 note=50 velocity=0 time=0.19480524999999999>,\n",
       " <message note_on channel=0 note=57 velocity=100 time=0>,\n",
       " <message note_on channel=0 note=57 velocity=0 time=0.19480524999999999>,\n",
       " <message note_on channel=0 note=48 velocity=100 time=0>,\n",
       " <message note_on channel=0 note=48 velocity=0 time=0.19480524999999999>,\n",
       " <message pitchwheel channel=0 pitch=4096 time=0>,\n",
       " <message note_on channel=0 note=47 velocity=100 time=0>,\n",
       " <message pitchwheel channel=0 pitch=0 time=0.07142859166666665>,\n",
       " <message pitchwheel channel=0 pitch=4096 time=0.058441574999999996>,\n",
       " <message pitchwheel channel=0 pitch=0 time=0.06493508333333332>,\n",
       " <message note_on channel=0 note=47 velocity=0 time=0.38961049999999997>,\n",
       " <message note_on channel=0 note=55 velocity=100 time=0>,\n",
       " <message note_on channel=0 note=55 velocity=0 time=0.19480524999999999>,\n",
       " <message note_on channel=0 note=50 velocity=100 time=0>,\n",
       " <message note_on channel=0 note=50 velocity=0 time=0.19480524999999999>,\n",
       " <message note_on channel=0 note=48 velocity=100 time=0>,\n",
       " <message note_on channel=0 note=48 velocity=0 time=0.19480524999999999>,\n",
       " <message note_on channel=0 note=47 velocity=100 time=0>,\n",
       " <message note_on channel=0 note=47 velocity=0 time=0.19480524999999999>,\n",
       " <message note_on channel=0 note=45 velocity=100 time=0>,\n",
       " <message note_on channel=0 note=45 velocity=0 time=0.19480524999999999>,\n",
       " <message note_on channel=0 note=43 velocity=100 time=0>,\n",
       " <message note_on channel=0 note=43 velocity=0 time=0.19480524999999999>,\n",
       " <message note_on channel=0 note=50 velocity=100 time=0>,\n",
       " <message note_on channel=0 note=50 velocity=0 time=0.19480524999999999>,\n",
       " <message note_on channel=0 note=48 velocity=100 time=0>,\n",
       " <message note_on channel=0 note=48 velocity=0 time=0.19480524999999999>,\n",
       " <message note_on channel=0 note=45 velocity=100 time=0>,\n",
       " <message note_on channel=0 note=45 velocity=0 time=0.19480524999999999>,\n",
       " <message note_on channel=0 note=47 velocity=100 time=0>,\n",
       " <message note_on channel=0 note=47 velocity=0 time=0.19480524999999999>,\n",
       " <message note_on channel=0 note=43 velocity=100 time=0>,\n",
       " <message note_on channel=0 note=43 velocity=0 time=0.19480524999999999>,\n",
       " <message note_on channel=0 note=50 velocity=100 time=0>,\n",
       " <message note_on channel=0 note=50 velocity=0 time=0.19480524999999999>,\n",
       " <message note_on channel=0 note=42 velocity=100 time=0>,\n",
       " <message note_on channel=0 note=42 velocity=0 time=0.19480524999999999>,\n",
       " <message note_on channel=0 note=40 velocity=100 time=0>,\n",
       " <message note_on channel=0 note=40 velocity=0 time=0.19480524999999999>,\n",
       " <message note_on channel=0 note=43 velocity=100 time=0>,\n",
       " <message note_on channel=0 note=43 velocity=0 time=0.19480524999999999>,\n",
       " <message note_on channel=0 note=45 velocity=100 time=0>,\n",
       " <message note_on channel=0 note=45 velocity=0 time=0.19480524999999999>,\n",
       " <message note_on channel=0 note=47 velocity=100 time=0>,\n",
       " <message note_on channel=0 note=47 velocity=0 time=0.19480524999999999>,\n",
       " <message note_on channel=0 note=49 velocity=100 time=0>,\n",
       " <message note_on channel=0 note=49 velocity=0 time=0.19480524999999999>,\n",
       " <message note_on channel=0 note=50 velocity=100 time=0>,\n",
       " <message note_on channel=0 note=50 velocity=0 time=0.19480524999999999>,\n",
       " <message note_on channel=0 note=52 velocity=100 time=0>,\n",
       " <message note_on channel=0 note=52 velocity=0 time=0.19480524999999999>,\n",
       " <message note_on channel=0 note=54 velocity=100 time=0>,\n",
       " <message note_on channel=0 note=54 velocity=0 time=0.19480524999999999>,\n",
       " <message note_on channel=0 note=55 velocity=100 time=0>,\n",
       " <message note_on channel=0 note=55 velocity=0 time=0.19480524999999999>,\n",
       " <message note_on channel=0 note=57 velocity=100 time=0>,\n",
       " <message note_on channel=0 note=57 velocity=0 time=0.19480524999999999>,\n",
       " <message note_on channel=0 note=61 velocity=100 time=0>,\n",
       " <message note_on channel=0 note=61 velocity=0 time=0.19480524999999999>,\n",
       " <message note_on channel=0 note=62 velocity=100 time=0>,\n",
       " <message note_on channel=0 note=62 velocity=0 time=0.19480524999999999>,\n",
       " <message note_on channel=0 note=64 velocity=100 time=0>,\n",
       " <message note_on channel=0 note=64 velocity=0 time=0.19480524999999999>,\n",
       " <message note_on channel=0 note=57 velocity=100 time=0>,\n",
       " <message note_on channel=0 note=57 velocity=0 time=0.19480524999999999>,\n",
       " <message note_on channel=0 note=67 velocity=100 time=0>,\n",
       " <message note_on channel=0 note=67 velocity=0 time=0.38961049999999997>,\n",
       " <message note_on channel=0 note=50 velocity=100 time=0>,\n",
       " <message note_on channel=0 note=50 velocity=0 time=0.19480524999999999>,\n",
       " <message note_on channel=0 note=67 velocity=100 time=0>,\n",
       " <message note_on channel=0 note=67 velocity=0 time=0.19480524999999999>,\n",
       " <message note_on channel=0 note=66 velocity=100 time=0>,\n",
       " <message note_on channel=0 note=66 velocity=0 time=0.19480524999999999>,\n",
       " <message note_on channel=0 note=64 velocity=100 time=0>,\n",
       " <message note_on channel=0 note=64 velocity=0 time=0.19480524999999999>,\n",
       " <message note_on channel=0 note=66 velocity=100 time=0>,\n",
       " <message note_on channel=0 note=66 velocity=0 time=0.19480524999999999>,\n",
       " <message note_on channel=0 note=62 velocity=100 time=0>,\n",
       " <message note_on channel=0 note=62 velocity=0 time=0.19480524999999999>,\n",
       " <message note_on channel=0 note=57 velocity=100 time=0>,\n",
       " <message note_on channel=0 note=57 velocity=0 time=0.19480524999999999>,\n",
       " <message note_on channel=0 note=62 velocity=100 time=0>,\n",
       " <message note_on channel=0 note=62 velocity=0 time=0.19480524999999999>,\n",
       " <message note_on channel=0 note=50 velocity=100 time=0>,\n",
       " <message note_on channel=0 note=50 velocity=0 time=0.19480524999999999>,\n",
       " <message note_on channel=0 note=54 velocity=100 time=0>,\n",
       " <message note_on channel=0 note=54 velocity=0 time=0.19480524999999999>,\n",
       " <message note_on channel=0 note=57 velocity=100 time=0>,\n",
       " <message note_on channel=0 note=57 velocity=0 time=0.19480524999999999>,\n",
       " <message note_on channel=0 note=60 velocity=100 time=0>,\n",
       " <message note_on channel=0 note=60 velocity=0 time=0.19480524999999999>,\n",
       " <message pitchwheel channel=0 pitch=4096 time=0>,\n",
       " <message note_on channel=0 note=59 velocity=100 time=0>,\n",
       " <message pitchwheel channel=0 pitch=0 time=0.06493508333333332>,\n",
       " <message pitchwheel channel=0 pitch=4096 time=0.06493508333333332>,\n",
       " <message pitchwheel channel=0 pitch=0 time=0.06493508333333332>,\n",
       " <message pitchwheel channel=0 pitch=4096 time=0.06493508333333332>,\n",
       " <message pitchwheel channel=0 pitch=0 time=0.06493508333333332>,\n",
       " <message pitchwheel channel=0 pitch=4096 time=0.06493508333333332>,\n",
       " <message pitchwheel channel=0 pitch=0 time=0.06493508333333332>,\n",
       " <message note_on channel=0 note=59 velocity=0 time=0.12987016666666665>,\n",
       " <message note_on channel=0 note=57 velocity=100 time=0>,\n",
       " <message note_on channel=0 note=57 velocity=0 time=0.19480524999999999>,\n",
       " <message note_on channel=0 note=59 velocity=100 time=0>,\n",
       " <message note_on channel=1 note=50 velocity=100 time=0>,\n",
       " <message note_on channel=2 note=43 velocity=100 time=0>,\n",
       " <message note_on channel=0 note=59 velocity=0 time=0.5844157499999999>,\n",
       " <message note_on channel=0 note=57 velocity=100 time=0>,\n",
       " <message note_on channel=1 note=50 velocity=0 time=0>,\n",
       " <message note_on channel=2 note=43 velocity=0 time=0>,\n",
       " <message note_on channel=0 note=57 velocity=0 time=0.19480524999999999>,\n",
       " <message note_on channel=0 note=55 velocity=100 time=0>,\n",
       " <message note_on channel=0 note=55 velocity=0 time=0.19480524999999999>,\n",
       " <message note_on channel=0 note=54 velocity=100 time=0>,\n",
       " <message note_on channel=0 note=54 velocity=0 time=0.19480524999999999>,\n",
       " <message note_on channel=0 note=52 velocity=100 time=0>,\n",
       " ...]"
      ]
     },
     "execution_count": 95,
     "metadata": {},
     "output_type": "execute_result"
    }
   ],
   "source": [
    "[msg for msg in file]"
   ]
  },
  {
   "cell_type": "code",
   "execution_count": 66,
   "metadata": {},
   "outputs": [
    {
     "data": {
      "text/plain": [
       "4.0"
      ]
     },
     "execution_count": 66,
     "metadata": {},
     "output_type": "execute_result"
    }
   ],
   "source": [
    "0.7792209999999999/0.19480524999999999"
   ]
  },
  {
   "cell_type": "code",
   "execution_count": 69,
   "metadata": {},
   "outputs": [
    {
     "data": {
      "text/plain": [
       "500000"
      ]
     },
     "execution_count": 69,
     "metadata": {},
     "output_type": "execute_result"
    }
   ],
   "source": [
    "mido.bpm2tempo(120)"
   ]
  },
  {
   "cell_type": "code",
   "execution_count": 71,
   "metadata": {},
   "outputs": [
    {
     "data": {
      "text/plain": [
       "77.0"
      ]
     },
     "execution_count": 71,
     "metadata": {},
     "output_type": "execute_result"
    }
   ],
   "source": [
    "mido.tempo2bpm(779221)"
   ]
  },
  {
   "cell_type": "code",
   "execution_count": 72,
   "metadata": {},
   "outputs": [],
   "source": [
    "tempo = 779221"
   ]
  },
  {
   "cell_type": "code",
   "execution_count": 73,
   "metadata": {},
   "outputs": [
    {
     "data": {
      "text/plain": [
       "76.99997818333952"
      ]
     },
     "execution_count": 73,
     "metadata": {},
     "output_type": "execute_result"
    }
   ],
   "source": [
    "mido.tempo2bpm(tempo)"
   ]
  },
  {
   "cell_type": "code",
   "execution_count": 108,
   "metadata": {},
   "outputs": [
    {
     "data": {
      "text/plain": [
       "{'type': 'time_signature',\n",
       " 'numerator': 4,\n",
       " 'denominator': 4,\n",
       " 'clocks_per_click': 24,\n",
       " 'notated_32nd_notes_per_beat': 8,\n",
       " 'time': 0}"
      ]
     },
     "execution_count": 108,
     "metadata": {},
     "output_type": "execute_result"
    }
   ],
   "source": [
    "file.tracks[0][2].dict()"
   ]
  },
  {
   "cell_type": "code",
   "execution_count": null,
   "metadata": {},
   "outputs": [],
   "source": []
  }
 ],
 "metadata": {
  "kernelspec": {
   "display_name": "Python 3",
   "language": "python",
   "name": "python3"
  },
  "language_info": {
   "codemirror_mode": {
    "name": "ipython",
    "version": 3
   },
   "file_extension": ".py",
   "mimetype": "text/x-python",
   "name": "python",
   "nbconvert_exporter": "python",
   "pygments_lexer": "ipython3",
   "version": "3.8.5"
  }
 },
 "nbformat": 4,
 "nbformat_minor": 4
}
